999
dxfrw 0.6.3
  0
SECTION
  2
HEADER
  9
$ACADVER
  1
AC1021
  9
$DWGCODEPAGE
  3
ANSI_1254
  9
$INSBASE
 10
0
 20
0
 30
0
  9
$EXTMIN
 10
-44.72212812710518
 20
-33.5393292032727
 30
0
  9
$EXTMAX
 10
44.72212812710514
 20
33.5393292032727
 30
0
  9
$LIMMIN
 10
0
 20
0
  9
$LIMMAX
 10
420
 20
297
  9
$ORTHOMODE
 70
    0
  9
$REGENMODE
 70
    1
  9
$FILLMODE
 70
    1
  9
$QTEXTMODE
 70
    0
  9
$MIRRTEXT
 70
    0
  9
$LTSCALE
 40
1
  9
$ATTMODE
 70
    1
  9
$TEXTSIZE
 40
2.5
  9
$TRACEWID
 40
1
  9
$TEXTSTYLE
  7
Standard
  9
$CLAYER
  8
Extern
  9
$CELTYPE
  6
ByLayer
  9
$CECOLOR
 62
    1
  9
$CELTSCALE
 40
1
  9
$DISPSILH
 70
    0
  9
$DIMSCALE
 40
1
  9
$DIMASZ
 40
2.5
  9
$DIMEXO
 40
0.625
  9
$DIMDLI
 40
3.75
  9
$DIMRND
 40
0
  9
$DIMDLE
 40
0
  9
$DIMEXE
 40
1.25
  9
$DIMTP
 40
0
  9
$DIMTM
 40
0
  9
$DIMTXT
 40
2.5
  9
$DIMCEN
 40
2.5
  9
$DIMTSZ
 40
0
  9
$DIMTOL
 70
    0
  9
$DIMLIM
 70
    0
  9
$DIMTIH
 70
    0
  9
$DIMTOH
 70
    0
  9
$DIMSE1
 70
    0
  9
$DIMSE2
 70
    0
  9
$DIMTAD
 70
    1
  9
$DIMZIN
 70
    8
  9
$DIMBLK
  1

  9
$DIMASO
 70
    1
  9
$DIMSHO
 70
    1
  9
$DIMPOST
  1

  9
$DIMAPOST
  1

  9
$DIMALT
 70
    0
  9
$DIMALTD
 70
    3
  9
$DIMALTF
 40
0.03937007874016
  9
$DIMLFAC
 40
1
  9
$DIMTOFL
 70
    1
  9
$DIMTVP
 40
0
  9
$DIMTIX
 70
    0
  9
$DIMSOXD
 70
    0
  9
$DIMSAH
 70
    0
  9
$DIMBLK1
  1

  9
$DIMBLK2
  1

  9
$DIMSTYLE
  2
ISO-25
  9
$DIMCLRD
 70
    0
  9
$DIMCLRE
 70
    0
  9
$DIMCLRT
 70
    0
  9
$DIMTFAC
 40
1
  9
$DIMGAP
 40
0.625
  9
$DIMJUST
 70
    0
  9
$DIMSD1
 70
    0
  9
$DIMSD2
 70
    0
  9
$DIMTOLJ
 70
    0
  9
$DIMTZIN
 70
    8
  9
$DIMALTZ
 70
    0
  9
$DIMALTTZ
 70
    0
  9
$DIMUPT
 70
    0
  9
$DIMDEC
 70
    2
  9
$DIMTDEC
 70
    2
  9
$DIMALTU
 70
    2
  9
$DIMALTTD
 70
    3
  9
$DIMTXSTY
  7
Standard
  9
$DIMAUNIT
 70
    0
  9
$DIMADEC
 70
    0
  9
$DIMALTRND
 40
0
  9
$DIMAZIN
 70
    0
  9
$DIMDSEP
 70
   44
  9
$DIMATFIT
 70
    3
  9
$DIMFRAC
 70
    0
  9
$DIMLDRBLK
  1

  9
$DIMLUNIT
 70
    2
  9
$DIMLWD
 70
   -2
  9
$DIMLWE
 70
   -2
  9
$DIMTMOVE
 70
    0
  9
$DIMFXL
 40
1
  9
$DIMFXLON
 70
    0
  9
$DIMJOGANG
 40
0.7854
  9
$DIMTFILL
 70
    0
  9
$DIMTFILLCLR
 70
    0
  9
$DIMARCSYM
 70
    0
  9
$DIMLTYPE
  6

  9
$DIMLTEX1
  6

  9
$DIMLTEX2
  6

  9
$LUNITS
 70
    2
  9
$LUPREC
 70
    4
  9
$SKETCHINC
 40
1
  9
$FILLETRAD
 40
0
  9
$AUNITS
 70
    0
  9
$AUPREC
 70
    0
  9
$MENU
  1
.
  9
$ELEVATION
 40
0
  9
$PELEVATION
 40
0
  9
$THICKNESS
 40
0
  9
$LIMCHECK
 70
    0
  9
$CHAMFERA
 40
0
  9
$CHAMFERB
 40
0
  9
$CHAMFERC
 40
0
  9
$CHAMFERD
 40
0
  9
$SKPOLY
 70
    0
  9
$USRTIMER
 70
    1
  9
$ANGBASE
 50
0
  9
$ANGDIR
 70
    0
  9
$PDMODE
 70
    0
  9
$PDSIZE
 40
0
  9
$PLINEWID
 40
0
  9
$SPLFRAME
 70
    0
  9
$SPLINETYPE
 70
    6
  9
$SPLINESEGS
 70
    8
  9
$HANDSEED
  5
20000
  9
$SURFTAB1
 70
    6
  9
$SURFTAB2
 70
    6
  9
$SURFTYPE
 70
    6
  9
$SURFU
 70
    6
  9
$SURFV
 70
    6
  9
$UCSBASE
  2

  9
$UCSNAME
  2

  9
$UCSORG
 10
0
 20
0
 30
0
  9
$UCSXDIR
 10
1
 20
0
 30
0
  9
$UCSYDIR
 10
0
 20
1
 30
0
  9
$UCSORTHOREF
  2

  9
$UCSORTHOVIEW
 70
    0
  9
$UCSORGTOP
 10
0
 20
0
 30
0
  9
$UCSORGBOTTOM
 10
0
 20
0
 30
0
  9
$UCSORGLEFT
 10
0
 20
0
 30
0
  9
$UCSORGRIGHT
 10
0
 20
0
 30
0
  9
$UCSORGFRONT
 10
0
 20
0
 30
0
  9
$UCSORGBACK
 10
0
 20
0
 30
0
  9
$PUCSBASE
  2

  9
$PUCSNAME
  2

  9
$PUCSORG
 10
0
 20
0
 30
0
  9
$PUCSXDIR
 10
1
 20
0
 30
0
  9
$PUCSYDIR
 10
0
 20
1
 30
0
  9
$PUCSORTHOREF
  2

  9
$PUCSORTHOVIEW
 70
    0
  9
$PUCSORGTOP
 10
0
 20
0
 30
0
  9
$PUCSORGBOTTOM
 10
0
 20
0
 30
0
  9
$PUCSORGLEFT
 10
0
 20
0
 30
0
  9
$PUCSORGRIGHT
 10
0
 20
0
 30
0
  9
$PUCSORGFRONT
 10
0
 20
0
 30
0
  9
$PUCSORGBACK
 10
0
 20
0
 30
0
  9
$USERI1
 70
    0
  9
$USERI2
 70
    0
  9
$USERI3
 70
    0
  9
$USERI4
 70
    0
  9
$USERI5
 70
    0
  9
$USERR1
 40
0
  9
$USERR2
 40
0
  9
$USERR3
 40
0
  9
$USERR4
 40
0
  9
$USERR5
 40
0
  9
$WORLDVIEW
 70
    1
  9
$SHADEDGE
 70
    3
  9
$SHADEDIF
 70
   70
  9
$TILEMODE
 70
    1
  9
$MAXACTVP
 70
   64
  9
$PINSBASE
 10
0
 20
0
 30
0
  9
$PLIMCHECK
 70
    0
  9
$PEXTMIN
 10
0
 20
0
 30
0
  9
$PEXTMAX
 10
0
 20
0
 30
0
  9
$GRIDMODE
 70
    1
  9
$SNAPSTYLE
 70
    0
  9
$PLIMMIN
 10
0
 20
0
  9
$PLIMMAX
 10
12
 20
9
  9
$UNITMODE
 70
    0
  9
$VISRETAIN
 70
    1
  9
$PLINEGEN
 70
    0
  9
$PSLTSCALE
 70
    1
  9
$TREEDEPTH
 70
 3020
  9
$CMLSTYLE
  2
Standard
  9
$CMLJUST
 70
    0
  9
$CMLSCALE
 40
20
  9
$PROXYGRAPHICS
 70
    1
  9
$MEASUREMENT
 70
    1
  9
$CELWEIGHT
370
   -1
  9
$ENDCAPS
280
    0
  9
$JOINSTYLE
280
    0
  9
$LWDISPLAY
290
    0
  9
$INSUNITS
 70
    4
  9
$HYPERLINKBASE
  1

  9
$STYLESHEET
  1

  9
$XEDIT
290
    1
  9
$CEPSNTYPE
380
    0
  9
$PSTYLEMODE
290
    1
  9
$EXTNAMES
290
    1
  9
$PSVPSCALE
 40
0
  9
$OLESTARTUP
290
    0
  9
$SORTENTS
280
  127
  9
$INDEXCTL
280
    0
  9
$HIDETEXT
280
    1
  9
$XCLIPFRAME
290
    0
  9
$HALOGAP
280
    0
  9
$OBSCOLOR
 70
  257
  9
$OBSLTYPE
280
    0
  9
$INTERSECTIONDISPLAY
280
    0
  9
$INTERSECTIONCOLOR
 70
  257
  9
$DIMASSOC
280
    1
  9
$PROJECTNAME
  1

  9
$CAMERADISPLAY
290
    0
  9
$LENSLENGTH
 40
50
  9
$CAMERAHEIGHT
 40
0
  9
$STEPSPERSEC
 40
2
  9
$STEPSIZE
 40
50
  9
$3DDWFPREC
 40
2
  9
$PSOLWIDTH
 40
5
  9
$PSOLHEIGHT
 40
80
  9
$LOFTANG1
 40
1.570796326794897
  9
$LOFTANG2
 40
1.570796326794897
  9
$LOFTMAG1
 40
0
  9
$LOFTMAG2
 40
0
  9
$LOFTPARAM
 70
    7
  9
$LOFTNORMALS
280
    1
  9
$LATITUDE
 40
1
  9
$LONGITUDE
 40
1
  9
$NORTHDIRECTION
 40
0
  9
$TIMEZONE
 70
-8000
  9
$LIGHTGLYPHDISPLAY
280
    1
  9
$TILEMODELIGHTSYNCH
280
    1
  9
$SOLIDHIST
280
    1
  9
$SHOWHIST
280
    1
  9
$DWFFRAME
280
    2
  9
$DGNFRAME
280
    0
  9
$REALWORLDSCALE
290
    1
  9
$INTERFERECOLOR
 62
    1
  9
$CSHADOW
280
    0
  9
$SHADOWPLANELOCATION
 40
0
  0
ENDSEC
  0
SECTION
  2
CLASSES
  0
ENDSEC
  0
SECTION
  2
TABLES
  0
TABLE
  2
VPORT
  5
8
330
0
100
AcDbSymbolTable
 70
    1
  0
VPORT
  5
31
330
2
100
AcDbSymbolTableRecord
100
AcDbViewportTableRecord
  2
*ACTIVE
 70
    0
 10
0
 20
0
 11
1
 21
1
 12
52.14735220873435
 22
24.58046998385275
 13
0
 23
0
 14
10
 24
10
 15
10
 25
10
 16
0
 26
0
 36
1
 17
0
 27
0
 37
0
 40
115.1683079617275
 41
1.853723404255319
 42
50
 43
0
 44
0
 50
0
 51
0
 71
    0
 72
  100
 73
    1
 74
    3
 75
    0
 76
    1
 77
    0
 78
    0
281
    0
 65
    1
110
0
120
0
130
0
111
1
121
0
131
0
112
0
122
1
132
0
 79
    0
146
0
348
10020
 60
    7
 61
    5
292
1
282
    1
141
0
142
0
 63
  250
421
3358443
  0
ENDTAB
  0
TABLE
  2
LTYPE
  5
5
330
0
100
AcDbSymbolTable
 70
    4
  0
LTYPE
  5
14
330
5
100
AcDbSymbolTableRecord
100
AcDbLinetypeTableRecord
  2
ByBlock
 70
    0
  3

 72
   65
 73
    0
 40
0
  0
LTYPE
  5
15
330
5
100
AcDbSymbolTableRecord
100
AcDbLinetypeTableRecord
  2
ByLayer
 70
    0
  3

 72
   65
 73
    0
 40
0
  0
LTYPE
  5
16
330
5
100
AcDbSymbolTableRecord
100
AcDbLinetypeTableRecord
  2
Continuous
 70
    0
  3
Solid line
 72
   65
 73
    0
 40
0
  0
LTYPE
  5
32
330
5
100
AcDbSymbolTableRecord
100
AcDbLinetypeTableRecord
  2
DOT
 70
    0
  3
Dot . . . . . . . . . . . . . . . . . . . . . .
 72
   65
 73
    2
 40
6.35
 49
0
 74
    0
 49
-6.35
 74
    0
  0
LTYPE
  5
33
330
5
100
AcDbSymbolTableRecord
100
AcDbLinetypeTableRecord
  2
DOTTINY
 70
    0
  3
Dot (.15x) .....................................
 72
   65
 73
    2
 40
0.9525
 49
0
 74
    0
 49
-0.9525
 74
    0
  0
LTYPE
  5
34
330
5
100
AcDbSymbolTableRecord
100
AcDbLinetypeTableRecord
  2
DOT2
 70
    0
  3
Dot (.5x) .....................................
 72
   65
 73
    2
 40
3.175
 49
0
 74
    0
 49
-3.175
 74
    0
  0
LTYPE
  5
35
330
5
100
AcDbSymbolTableRecord
100
AcDbLinetypeTableRecord
  2
DOTX2
 70
    0
  3
Dot (2x) .  .  .  .  .  .  .  .  .  .  .  .  .
 72
   65
 73
    2
 40
12.7
 49
0
 74
    0
 49
-12.7
 74
    0
  0
LTYPE
  5
36
330
5
100
AcDbSymbolTableRecord
100
AcDbLinetypeTableRecord
  2
DASHED
 70
    0
  3
Dashed _ _ _ _ _ _ _ _ _ _ _ _ _ _ _ _ _
 72
   65
 73
    2
 40
19.05
 49
12.7
 74
    0
 49
-6.35
 74
    0
  0
LTYPE
  5
37
330
5
100
AcDbSymbolTableRecord
100
AcDbLinetypeTableRecord
  2
DASHEDTINY
 70
    0
  3
Dashed (.15x) _ _ _ _ _ _ _ _ _ _ _ _ _ _ _ _ _
 72
   65
 73
    2
 40
2.8575
 49
1.905
 74
    0
 49
-0.9525
 74
    0
  0
LTYPE
  5
38
330
5
100
AcDbSymbolTableRecord
100
AcDbLinetypeTableRecord
  2
DASHED2
 70
    0
  3
Dashed (.5x) _ _ _ _ _ _ _ _ _ _ _ _ _ _ _ _ _
 72
   65
 73
    2
 40
9.524999999999999
 49
6.35
 74
    0
 49
-3.175
 74
    0
  0
LTYPE
  5
39
330
5
100
AcDbSymbolTableRecord
100
AcDbLinetypeTableRecord
  2
DASHEDX2
 70
    0
  3
Dashed (2x) ____  ____  ____  ____  ____  ___
 72
   65
 73
    2
 40
38.09999999999999
 49
25.4
 74
    0
 49
-12.7
 74
    0
  0
LTYPE
  5
3A
330
5
100
AcDbSymbolTableRecord
100
AcDbLinetypeTableRecord
  2
DASHDOT
 70
    0
  3
Dash dot __ . __ . __ . __ . __ . __ . __ . __
 72
   65
 73
    4
 40
25.4
 49
12.7
 74
    0
 49
-6.35
 74
    0
 49
0
 74
    0
 49
-6.35
 74
    0
  0
LTYPE
  5
3B
330
5
100
AcDbSymbolTableRecord
100
AcDbLinetypeTableRecord
  2
DASHDOTTINY
 70
    0
  3
Dash dot (.15x) _._._._._._._._._._._._._._._.
 72
   65
 73
    4
 40
3.81
 49
1.905
 74
    0
 49
-0.9525
 74
    0
 49
0
 74
    0
 49
-0.9525
 74
    0
  0
LTYPE
  5
3C
330
5
100
AcDbSymbolTableRecord
100
AcDbLinetypeTableRecord
  2
DASHDOT2
 70
    0
  3
Dash dot (.5x) _._._._._._._._._._._._._._._.
 72
   65
 73
    4
 40
12.7
 49
6.35
 74
    0
 49
-3.175
 74
    0
 49
0
 74
    0
 49
-3.175
 74
    0
  0
LTYPE
  5
3D
330
5
100
AcDbSymbolTableRecord
100
AcDbLinetypeTableRecord
  2
DASHDOTX2
 70
    0
  3
Dash dot (2x) ____  .  ____  .  ____  .  ___
 72
   65
 73
    4
 40
50.8
 49
25.4
 74
    0
 49
-12.7
 74
    0
 49
0
 74
    0
 49
-12.7
 74
    0
  0
LTYPE
  5
3E
330
5
100
AcDbSymbolTableRecord
100
AcDbLinetypeTableRecord
  2
DIVIDE
 70
    0
  3
Divide ____ . . ____ . . ____ . . ____ . . ____
 72
   65
 73
    6
 40
31.75
 49
12.7
 74
    0
 49
-6.35
 74
    0
 49
0
 74
    0
 49
-6.35
 74
    0
 49
0
 74
    0
 49
-6.35
 74
    0
  0
LTYPE
  5
3F
330
5
100
AcDbSymbolTableRecord
100
AcDbLinetypeTableRecord
  2
DIVIDETINY
 70
    0
  3
Divide (.15x) __..__..__..__..__..__..__..__.._
 72
   65
 73
    6
 40
4.7625
 49
1.905
 74
    0
 49
-0.9525
 74
    0
 49
0
 74
    0
 49
-0.9525
 74
    0
 49
0
 74
    0
 49
-0.9525
 74
    0
  0
LTYPE
  5
40
330
5
100
AcDbSymbolTableRecord
100
AcDbLinetypeTableRecord
  2
DIVIDE2
 70
    0
  3
Divide (.5x) __..__..__..__..__..__..__..__.._
 72
   65
 73
    6
 40
15.875
 49
6.35
 74
    0
 49
-3.175
 74
    0
 49
0
 74
    0
 49
-3.175
 74
    0
 49
0
 74
    0
 49
-3.175
 74
    0
  0
LTYPE
  5
41
330
5
100
AcDbSymbolTableRecord
100
AcDbLinetypeTableRecord
  2
DIVIDEX2
 70
    0
  3
Divide (2x) ________  .  .  ________  .  .  _
 72
   65
 73
    6
 40
63.5
 49
25.4
 74
    0
 49
-12.7
 74
    0
 49
0
 74
    0
 49
-12.7
 74
    0
 49
0
 74
    0
 49
-12.7
 74
    0
  0
LTYPE
  5
42
330
5
100
AcDbSymbolTableRecord
100
AcDbLinetypeTableRecord
  2
BORDER
 70
    0
  3
Border __ __ . __ __ . __ __ . __ __ . __ __ .
 72
   65
 73
    6
 40
44.45
 49
12.7
 74
    0
 49
-6.35
 74
    0
 49
12.7
 74
    0
 49
-6.35
 74
    0
 49
0
 74
    0
 49
-6.35
 74
    0
  0
LTYPE
  5
43
330
5
100
AcDbSymbolTableRecord
100
AcDbLinetypeTableRecord
  2
BORDERTINY
 70
    0
  3
Border (.15x) __.__.__.__.__.__.__.__.__.__.__.
 72
   65
 73
    6
 40
6.6675
 49
1.905
 74
    0
 49
-0.9525
 74
    0
 49
1.905
 74
    0
 49
-0.9525
 74
    0
 49
0
 74
    0
 49
-0.9525
 74
    0
  0
LTYPE
  5
44
330
5
100
AcDbSymbolTableRecord
100
AcDbLinetypeTableRecord
  2
BORDER2
 70
    0
  3
Border (.5x) __.__.__.__.__.__.__.__.__.__.__.
 72
   65
 73
    6
 40
22.225
 49
6.35
 74
    0
 49
-3.175
 74
    0
 49
6.35
 74
    0
 49
-3.175
 74
    0
 49
0
 74
    0
 49
-3.175
 74
    0
  0
LTYPE
  5
45
330
5
100
AcDbSymbolTableRecord
100
AcDbLinetypeTableRecord
  2
BORDERX2
 70
    0
  3
Border (2x) ____  ____  .  ____  ____  .  ___
 72
   65
 73
    6
 40
88.89999999999999
 49
25.4
 74
    0
 49
-12.7
 74
    0
 49
25.4
 74
    0
 49
-12.7
 74
    0
 49
0
 74
    0
 49
-12.7
 74
    0
  0
LTYPE
  5
46
330
5
100
AcDbSymbolTableRecord
100
AcDbLinetypeTableRecord
  2
CENTER
 70
    0
  3
Center ____ _ ____ _ ____ _ ____ _ ____ _ ____
 72
   65
 73
    4
 40
50.8
 49
31.75
 74
    0
 49
-6.35
 74
    0
 49
6.35
 74
    0
 49
-6.35
 74
    0
  0
LTYPE
  5
47
330
5
100
AcDbSymbolTableRecord
100
AcDbLinetypeTableRecord
  2
CENTERTINY
 70
    0
  3
Center (.15x) ___ _ ___ _ ___ _ ___ _ ___ _ ___
 72
   65
 73
    4
 40
7.619999999999999
 49
4.7625
 74
    0
 49
-0.9525
 74
    0
 49
0.9525
 74
    0
 49
-0.9525
 74
    0
  0
LTYPE
  5
48
330
5
100
AcDbSymbolTableRecord
100
AcDbLinetypeTableRecord
  2
CENTER2
 70
    0
  3
Center (.5x) ___ _ ___ _ ___ _ ___ _ ___ _ ___
 72
   65
 73
    4
 40
28.575
 49
19.05
 74
    0
 49
-3.175
 74
    0
 49
3.175
 74
    0
 49
-3.175
 74
    0
  0
LTYPE
  5
49
330
5
100
AcDbSymbolTableRecord
100
AcDbLinetypeTableRecord
  2
CENTERX2
 70
    0
  3
Center (2x) ________  __  ________  __  _____
 72
   65
 73
    4
 40
101.6
 49
63.5
 74
    0
 49
-12.7
 74
    0
 49
12.7
 74
    0
 49
-12.7
 74
    0
  0
ENDTAB
  0
TABLE
  2
LAYER
  5
2
330
0
100
AcDbSymbolTable
 70
    1
  0
LAYER
  5
10
330
2
100
AcDbSymbolTableRecord
100
AcDbLayerTableRecord
  2
0
 70
    0
 62
    7
  6
CONTINUOUS
370
   -3
390
F
  0
LAYER
  5
4A
330
2
100
AcDbSymbolTableRecord
100
AcDbLayerTableRecord
  2
Extern
 70
    0
 62
    1
  6
CONTINUOUS
370
    0
390
F
  0
ENDTAB
  0
TABLE
  2
STYLE
  5
3
330
0
100
AcDbSymbolTable
 70
    3
  0
STYLE
  5
4B
330
2
100
AcDbSymbolTableRecord
100
AcDbTextStyleTableRecord
  2
Standard
 70
    0
 40
0
 41
1
 50
0
 71
    0
 42
1
  3
txt
  4

  0
ENDTAB
  0
TABLE
  2
VIEW
  5
6
330
0
100
AcDbSymbolTable
 70
    0
  0
ENDTAB
  0
TABLE
  2
UCS
  5
7
330
0
100
AcDbSymbolTable
 70
    0
  0
ENDTAB
  0
TABLE
  2
APPID
  5
9
330
0
100
AcDbSymbolTable
 70
    1
  0
APPID
  5
12
330
9
100
AcDbSymbolTableRecord
100
AcDbRegAppTableRecord
  2
ACAD
 70
    0
  0
APPID
  5
4C
330
9
100
AcDbSymbolTableRecord
100
AcDbRegAppTableRecord
  2
LibreCad
 70
    0
  0
ENDTAB
  0
TABLE
  2
DIMSTYLE
  5
A
330
0
100
AcDbSymbolTable
 70
    1
100
AcDbDimStyleTable
 71
    1
  0
DIMSTYLE
105
4D
330
A
100
AcDbSymbolTableRecord
100
AcDbDimStyleTableRecord
  2
Standard
 70
    0
 40
1
 41
2.5
 42
0.625
 43
0.38
 44
1.25
 45
0
 46
0
 47
0
 48
0
 49
1
140
2.5
141
0.09
142
0
143
25.4
144
1
145
0
146
1
147
0.625
148
0
 71
    0
 72
    0
 73
    0
 74
    1
 75
    0
 76
    0
 77
    0
 78
    8
 79
    0
170
    0
171
    2
172
    0
173
    0
174
    0
175
    0
176
    0
177
    0
178
    0
179
    0
271
    2
272
    4
273
    2
274
    2
275
    0
276
    0
277
    2
278
   44
279
    0
280
    0
281
    0
282
    0
283
    1
284
    0
285
    0
286
    0
288
    0
289
    3
340
Standard
341

371
   -2
372
   -2
  0
ENDTAB
  0
TABLE
  2
BLOCK_RECORD
  5
1
330
0
100
AcDbSymbolTable
 70
    2
  0
BLOCK_RECORD
  5
1F
330
1
100
AcDbSymbolTableRecord
100
AcDbBlockTableRecord
  2
*Model_Space
 70
    0
280
    1
281
    0
  0
BLOCK_RECORD
  5
1E
330
1
100
AcDbSymbolTableRecord
100
AcDbBlockTableRecord
  2
*Paper_Space
 70
    0
280
    1
281
    0
  0
ENDTAB
  0
ENDSEC
  0
SECTION
  2
BLOCKS
  0
BLOCK
  5
20
330
1F
100
AcDbEntity
  8
0
100
AcDbBlockBegin
  2
*Model_Space
 70
    0
 10
0
 20
0
 30
0
  3
*Model_Space
  1

  0
ENDBLK
  5
21
330
1F
100
AcDbEntity
  8
0
100
AcDbBlockEnd
  0
BLOCK
  5
1C
330
1B
100
AcDbEntity
  8
0
100
AcDbBlockBegin
  2
*Paper_Space
 70
    0
 10
0
 20
0
 30
0
  3
*Paper_Space
  1

  0
ENDBLK
  5
1D
330
1F
100
AcDbEntity
  8
0
100
AcDbBlockEnd
  0
ENDSEC
  0
SECTION
  2
ENTITIES
  0
LINE
  5
4E
100
AcDbEntity
  8
0
  6
CONTINUOUS
 62
    7
370
   -3
100
AcDbLine
 10
25.32738512578651
 20
18.19977141578732
 11
24.8202817728668
 21
18.19977141578732
  0
LINE
  5
4F
100
AcDbEntity
  8
0
  6
CONTINUOUS
 62
    7
370
    0
100
AcDbLine
 10
24.8202817728668
 20
18.19977141578732
 11
24.31317841994709
 21
18.19977141578732
  0
LINE
  5
50
100
AcDbEntity
  8
0
  6
CONTINUOUS
 62
    7
370
    0
100
AcDbLine
 10
24.31317841994709
 20
18.19977141578732
 11
23.80607506702739
 21
18.19977141578732
  0
LINE
  5
51
100
AcDbEntity
  8
0
  6
CONTINUOUS
 62
    7
370
    0
100
AcDbLine
 10
23.80607506702739
 20
18.19977141578732
 11
23.29897171410769
 21
18.19977141578732
  0
LINE
  5
52
100
AcDbEntity
  8
0
  6
CONTINUOUS
 62
    7
370
    0
100
AcDbLine
 10
23.29897171410769
 20
18.19977141578732
 11
22.79186836118799
 21
18.19977141578732
  0
LINE
  5
53
100
AcDbEntity
  8
0
  6
CONTINUOUS
 62
    7
370
    0
100
AcDbLine
 10
22.79186836118799
 20
18.19977141578732
 11
22.28476500826828
 21
18.19977141578732
  0
LINE
  5
54
100
AcDbEntity
  8
0
  6
CONTINUOUS
 62
    7
370
    0
100
AcDbLine
 10
22.28476500826828
 20
18.19977141578732
 11
21.77766165534858
 21
18.19977141578732
  0
LINE
  5
55
100
AcDbEntity
  8
0
  6
CONTINUOUS
 62
    7
370
    0
100
AcDbLine
 10
21.77766165534858
 20
18.19977141578732
 11
21.27055830242887
 21
18.19977141578732
  0
LINE
  5
56
100
AcDbEntity
  8
0
  6
CONTINUOUS
 62
    7
370
    0
100
AcDbLine
 10
21.27055830242887
 20
18.19977141578732
 11
20.76346810273514
 21
18.19977536835142
  0
LINE
  5
57
100
AcDbEntity
  8
0
  6
CONTINUOUS
 62
    7
370
    0
100
AcDbLine
 10
20.76346810273514
 20
18.19977536835142
 11
20.25829401744821
 21
18.20035511616364
  0
LINE
  5
58
100
AcDbEntity
  8
0
  6
CONTINUOUS
 62
    7
370
    0
100
AcDbLine
 10
20.25829401744821
 20
18.20035511616364
 11
19.76078178215193
 21
18.2032372613697
  0
LINE
  5
59
100
AcDbEntity
  8
0
  6
CONTINUOUS
 62
    7
370
    0
100
AcDbLine
 10
19.76078178215193
 20
18.2032372613697
 11
19.27714370764954
 21
18.21028861266728
  0
LINE
  5
5A
100
AcDbEntity
  8
0
  6
CONTINUOUS
 62
    7
370
    0
100
AcDbLine
 10
19.27714370764954
 20
18.21028861266728
 11
18.81359210474426
 21
18.2233759787541
  0
LINE
  5
5B
100
AcDbEntity
  8
0
  6
CONTINUOUS
 62
    7
370
    0
100
AcDbLine
 10
18.81359210474426
 20
18.2233759787541
 11
18.3763392842393
 21
18.24436616832783
  0
LINE
  5
5C
100
AcDbEntity
  8
0
  6
CONTINUOUS
 62
    7
370
    0
100
AcDbLine
 10
18.3763392842393
 20
18.24436616832783
 11
17.97159755693792
 21
18.27512599008618
  0
LINE
  5
5D
100
AcDbEntity
  8
0
  6
CONTINUOUS
 62
    7
370
    0
100
AcDbLine
 10
17.97159755693792
 20
18.27512599008618
 11
17.60557923364332
 21
18.31752225272685
  0
LINE
  5
5E
100
AcDbEntity
  8
0
  6
CONTINUOUS
 62
    7
370
    0
100
AcDbLine
 10
17.60557923364332
 20
18.31752225272685
 11
17.28449662515875
 21
18.37342176494754
  0
LINE
  5
5F
100
AcDbEntity
  8
0
  6
CONTINUOUS
 62
    7
370
    0
100
AcDbLine
 10
17.28449662515875
 20
18.37342176494754
 11
17.01434131645062
 21
18.44467779387183
  0
LINE
  5
60
100
AcDbEntity
  8
0
  6
CONTINUOUS
 62
    7
370
    0
100
AcDbLine
 10
17.01434131645062
 20
18.44467779387183
 11
16.79513564215812
 21
18.53277739192555
  0
LINE
  5
61
100
AcDbEntity
  8
0
  6
CONTINUOUS
 62
    7
370
    0
100
AcDbLine
 10
16.79513564215812
 20
18.53277739192555
 11
16.62039020297679
 21
18.63880811535863
  0
LINE
  5
62
100
AcDbEntity
  8
0
  6
CONTINUOUS
 62
    7
370
    0
100
AcDbLine
 10
16.62039020297679
 20
18.63880811535863
 11
16.48328611963584
 21
18.7638373067594
  0
LINE
  5
63
100
AcDbEntity
  8
0
  6
CONTINUOUS
 62
    7
370
    0
100
AcDbLine
 10
16.48328611963584
 20
18.7638373067594
 11
16.3770045128645
 21
18.90893230871619
  0
LINE
  5
64
100
AcDbEntity
  8
0
  6
CONTINUOUS
 62
    7
370
    0
100
AcDbLine
 10
16.3770045128645
 20
18.90893230871619
 11
16.29472650339198
 21
19.07516046381731
  0
LINE
  5
65
100
AcDbEntity
  8
0
  6
CONTINUOUS
 62
    7
370
    0
100
AcDbLine
 10
16.29472650339198
 20
19.07516046381731
 11
16.22963321194752
 21
19.2635891146511
  0
LINE
  5
66
100
AcDbEntity
  8
0
  6
CONTINUOUS
 62
    7
370
    0
100
AcDbLine
 10
16.22963321194752
 20
19.2635891146511
 11
16.17490575926033
 21
19.47528560380589
  0
LINE
  5
67
100
AcDbEntity
  8
0
  6
CONTINUOUS
 62
    7
370
    0
100
AcDbLine
 10
16.17490575926033
 20
19.47528560380589
 11
16.12372526605963
 21
19.71131727386998
  0
LINE
  5
68
100
AcDbEntity
  8
0
  6
CONTINUOUS
 62
    7
370
    0
100
AcDbLine
 10
16.12372526605963
 20
19.71131727386998
 11
16.06940053327714
 21
19.97258569538364
  0
LINE
  5
69
100
AcDbEntity
  8
0
  6
CONTINUOUS
 62
    7
370
    0
100
AcDbLine
 10
16.06940053327714
 20
19.97258569538364
 11
16.00655848311868
 21
20.25828107205833
  0
LINE
  5
6A
100
AcDbEntity
  8
0
  6
CONTINUOUS
 62
    7
370
    0
100
AcDbLine
 10
16.00655848311868
 20
20.25828107205833
 11
15.93060365861516
 21
20.56658399300363
  0
LINE
  5
6B
100
AcDbEntity
  8
0
  6
CONTINUOUS
 62
    7
370
    0
100
AcDbLine
 10
15.93060365861516
 20
20.56658399300363
 11
15.83695065342567
 21
20.89566199821746
  0
LINE
  5
6C
100
AcDbEntity
  8
0
  6
CONTINUOUS
 62
    7
370
    0
100
AcDbLine
 10
15.83695065342567
 20
20.89566199821746
 11
15.7210140612093
 21
21.24368262769776
  0
LINE
  5
6D
100
AcDbEntity
  8
0
  6
CONTINUOUS
 62
    7
370
    0
100
AcDbLine
 10
15.7210140612093
 20
21.24368262769776
 11
15.57820847562515
 21
21.60881342144244
  0
LINE
  5
6E
100
AcDbEntity
  8
0
  6
CONTINUOUS
 62
    7
370
    0
100
AcDbLine
 10
15.57820847562515
 20
21.60881342144244
 11
15.40394849033231
 21
21.98922191944943
  0
LINE
  5
6F
100
AcDbEntity
  8
0
  6
CONTINUOUS
 62
    7
370
    0
100
AcDbLine
 10
15.40394849033231
 20
21.98922191944943
 11
15.19364869898988
 21
22.38307566171666
  0
LINE
  5
70
100
AcDbEntity
  8
0
  6
CONTINUOUS
 62
    7
370
    0
100
AcDbLine
 10
15.19364869898988
 20
22.38307566171666
 11
14.94272369525694
 21
22.78854218824204
  0
LINE
  5
71
100
AcDbEntity
  8
0
  6
CONTINUOUS
 62
    7
370
    0
100
AcDbLine
 10
14.94272369525694
 20
22.78854218824204
 11
14.64733986411495
 21
23.20358919656601
  0
LINE
  5
72
100
AcDbEntity
  8
0
  6
CONTINUOUS
 62
    7
370
    0
100
AcDbLine
 10
14.64733986411495
 20
23.20358919656601
 11
14.30733843639331
 21
23.62520753040885
  0
LINE
  5
73
100
AcDbEntity
  8
0
  6
CONTINUOUS
 62
    7
370
    0
100
AcDbLine
 10
14.30733843639331
 20
23.62520753040885
 11
13.92368175447066
 21
24.05009001769781
  0
LINE
  5
74
100
AcDbEntity
  8
0
  6
CONTINUOUS
 62
    7
370
    0
100
AcDbLine
 10
13.92368175447066
 20
24.05009001769781
 11
13.49733243470205
 21
24.47492941353126
  0
LINE
  5
75
100
AcDbEntity
  8
0
  6
CONTINUOUS
 62
    7
370
    0
100
AcDbLine
 10
13.49733243470205
 20
24.47492941353126
 11
13.02925309344254
 21
24.89641847300757
  0
LINE
  5
76
100
AcDbEntity
  8
0
  6
CONTINUOUS
 62
    7
370
    0
100
AcDbLine
 10
13.02925309344254
 20
24.89641847300757
 11
12.5204063470472
 21
25.3112499512251
  0
LINE
  5
77
100
AcDbEntity
  8
0
  6
CONTINUOUS
 62
    7
370
    0
100
AcDbLine
 10
12.5204063470472
 20
25.3112499512251
 11
11.97175481187109
 21
25.71611660328222
  0
LINE
  5
78
100
AcDbEntity
  8
0
  6
CONTINUOUS
 62
    7
370
    0
100
AcDbLine
 10
11.97175481187109
 20
25.71611660328222
 11
11.38426110426927
 21
26.1077111842773
  0
LINE
  5
79
100
AcDbEntity
  8
0
  6
CONTINUOUS
 62
    7
370
    0
100
AcDbLine
 10
11.38426110426927
 20
26.1077111842773
 11
10.75888845758376
 21
26.48272806740774
  0
LINE
  5
7A
100
AcDbEntity
  8
0
  6
CONTINUOUS
 62
    7
370
    0
100
AcDbLine
 10
10.75888845758376
 20
26.48272806740774
 11
10.09680926373613
 21
26.83841016144607
  0
LINE
  5
7B
100
AcDbEntity
  8
0
  6
CONTINUOUS
 62
    7
370
    0
100
AcDbLine
 10
10.09680926373613
 20
26.83841016144607
 11
9.399708630811928
 21
27.17334501546839
  0
LINE
  5
7C
100
AcDbEntity
  8
0
  6
CONTINUOUS
 62
    7
370
    0
100
AcDbLine
 10
9.399708630811928
 20
27.17334501546839
 11
8.669348790266749
 21
27.48632244093096
  0
LINE
  5
7D
100
AcDbEntity
  8
0
  6
CONTINUOUS
 62
    7
370
    0
100
AcDbLine
 10
8.669348790266749
 20
27.48632244093096
 11
7.907491973556199
 21
27.7761322492901
  0
LINE
  5
7E
100
AcDbEntity
  8
0
  6
CONTINUOUS
 62
    7
370
    0
100
AcDbLine
 10
7.907491973556199
 20
27.7761322492901
 11
7.115900412135869
 21
28.04156425200211
  0
LINE
  5
7F
100
AcDbEntity
  8
0
  6
CONTINUOUS
 62
    7
370
    0
100
AcDbLine
 10
7.115900412135869
 20
28.04156425200211
 11
6.296336337461359
 21
28.28140826052327
  0
LINE
  5
80
100
AcDbEntity
  8
0
  6
CONTINUOUS
 62
    7
370
    0
100
AcDbLine
 10
6.296336337461359
 20
28.28140826052327
 11
5.450561980988258
 21
28.49445408630988
  0
LINE
  5
81
100
AcDbEntity
  8
0
  6
CONTINUOUS
 62
    7
370
    0
100
AcDbLine
 10
5.450561980988258
 20
28.49445408630988
 11
4.580339574172169
 21
28.67949154081825
  0
LINE
  5
82
100
AcDbEntity
  8
0
  6
CONTINUOUS
 62
    7
370
    0
100
AcDbLine
 10
4.580339574172169
 20
28.67949154081825
 11
3.687442347125365
 21
28.83533958448989
  0
LINE
  5
83
100
AcDbEntity
  8
0
  6
CONTINUOUS
 62
    7
370
    0
100
AcDbLine
 10
3.687442347125365
 20
28.83533958448989
 11
2.774071102738585
 21
28.961950344567
  0
LINE
  5
84
100
AcDbEntity
  8
0
  6
CONTINUOUS
 62
    7
370
    0
100
AcDbLine
 10
2.774071102738585
 20
28.961950344567
 11
1.842982076064938
 21
29.06074797204572
  0
LINE
  5
85
100
AcDbEntity
  8
0
  6
CONTINUOUS
 62
    7
370
    0
100
AcDbLine
 10
1.842982076064938
 20
29.06074797204572
 11
0.8969686226238304
 21
29.13325499574732
  0
LINE
  5
86
100
AcDbEntity
  8
0
  6
CONTINUOUS
 62
    7
370
    0
100
AcDbLine
 10
0.8969686226238304
 20
29.13325499574732
 11
-0.06117590206533075
 21
29.1809939444931
  0
LINE
  5
87
100
AcDbEntity
  8
0
  6
CONTINUOUS
 62
    7
370
    0
100
AcDbLine
 10
-0.06117590206533075
 20
29.1809939444931
 11
-1.028658142483138
 21
29.20548734710432
  0
LINE
  5
88
100
AcDbEntity
  8
0
  6
CONTINUOUS
 62
    7
370
    0
100
AcDbLine
 10
-1.028658142483138
 20
29.20548734710432
 11
-2.002684743110184
 21
29.20825773240227
  0
LINE
  5
89
100
AcDbEntity
  8
0
  6
CONTINUOUS
 62
    7
370
    0
100
AcDbLine
 10
-2.002684743110184
 20
29.20825773240227
 11
-2.980462348427064
 21
29.19082762920821
  0
LINE
  5
8A
100
AcDbEntity
  8
0
  6
CONTINUOUS
 62
    7
370
    0
100
AcDbLine
 10
-2.980462348427064
 20
29.19082762920821
 11
-3.959197602914369
 21
29.15471956634345
  0
LINE
  5
8B
100
AcDbEntity
  8
0
  6
CONTINUOUS
 62
    7
370
    0
100
AcDbLine
 10
-3.959197602914369
 20
29.15471956634345
 11
-4.936084109874971
 21
29.10127624977941
  0
LINE
  5
8C
100
AcDbEntity
  8
0
  6
CONTINUOUS
 62
    7
370
    0
100
AcDbLine
 10
-4.936084109874971
 20
29.10127624977941
 11
-5.908143948517012
 21
29.02947526538989
  0
LINE
  5
8D
100
AcDbEntity
  8
0
  6
CONTINUOUS
 62
    7
370
    0
100
AcDbLine
 10
-5.908143948517012
 20
29.02947526538989
 11
-6.87227827957954
 21
28.93662687235674
  0
LINE
  5
8E
100
AcDbEntity
  8
0
  6
CONTINUOUS
 62
    7
370
    0
100
AcDbLine
 10
-6.87227827957954
 20
28.93662687235674
 11
-7.825385733140047
 21
28.82000643494816
  0
LINE
  5
8F
100
AcDbEntity
  8
0
  6
CONTINUOUS
 62
    7
370
    0
100
AcDbLine
 10
-7.825385733140047
 20
28.82000643494816
 11
-8.764364939276039
 21
28.67688931743231
  0
LINE
  5
90
100
AcDbEntity
  8
0
  6
CONTINUOUS
 62
    7
370
    0
100
AcDbLine
 10
-8.764364939276039
 20
28.67688931743231
 11
-9.68611452806501
 21
28.50455088407737
  0
LINE
  5
91
100
AcDbEntity
  8
0
  6
CONTINUOUS
 62
    7
370
    0
100
AcDbLine
 10
-9.68611452806501
 20
28.50455088407737
 11
-10.58753312958446
 21
28.30026649915151
  0
LINE
  5
92
100
AcDbEntity
  8
0
  6
CONTINUOUS
 62
    7
370
    0
100
AcDbLine
 10
-10.58753312958446
 20
28.30026649915151
 11
-11.46551937391189
 21
28.06131152692291
  0
LINE
  5
93
100
AcDbEntity
  8
0
  6
CONTINUOUS
 62
    7
370
    0
100
AcDbLine
 10
-11.46551937391189
 20
28.06131152692291
 11
-12.31697189112479
 21
27.78496133165975
  0
LINE
  5
94
100
AcDbEntity
  8
0
  6
CONTINUOUS
 62
    7
370
    0
100
AcDbLine
 10
-12.31697189112479
 20
27.78496133165975
 11
-13.13854685481998
 21
27.46909838760287
  0
LINE
  5
95
100
AcDbEntity
  8
0
  6
CONTINUOUS
 62
    7
370
    0
100
AcDbLine
 10
-13.13854685481998
 20
27.46909838760287
 11
-13.9254476861537
 21
27.11524285478282
  0
LINE
  5
96
100
AcDbEntity
  8
0
  6
CONTINUOUS
 62
    7
370
    0
100
AcDbLine
 10
-13.9254476861537
 20
27.11524285478282
 11
-14.67233914898486
 21
26.72626368875889
  0
LINE
  5
97
100
AcDbEntity
  8
0
  6
CONTINUOUS
 62
    7
370
    0
100
AcDbLine
 10
-14.67233914898486
 20
26.72626368875889
 11
-15.37388512430852
 21
26.30503205577753
  0
LINE
  5
98
100
AcDbEntity
  8
0
  6
CONTINUOUS
 62
    7
370
    0
100
AcDbLine
 10
-15.37388512430852
 20
26.30503205577753
 11
-16.02474949311975
 21
25.85441912208522
  0
LINE
  5
99
100
AcDbEntity
  8
0
  6
CONTINUOUS
 62
    7
370
    0
100
AcDbLine
 10
-16.02474949311975
 20
25.85441912208522
 11
-16.61959613641363
 21
25.37729605392842
  0
LINE
  5
9A
100
AcDbEntity
  8
0
  6
CONTINUOUS
 62
    7
370
    0
100
AcDbLine
 10
-16.61959613641363
 20
25.37729605392842
 11
-17.15308893518521
 21
24.8765340175536
  0
LINE
  5
9B
100
AcDbEntity
  8
0
  6
CONTINUOUS
 62
    7
370
    0
100
AcDbLine
 10
-17.15308893518521
 20
24.8765340175536
 11
-17.61989177042958
 21
24.35500417920722
  0
LINE
  5
9C
100
AcDbEntity
  8
0
  6
CONTINUOUS
 62
    7
370
    0
100
AcDbLine
 10
-17.61989177042958
 20
24.35500417920722
 11
-18.01466941202242
 21
23.81557790794894
  0
LINE
  5
9D
100
AcDbEntity
  8
0
  6
CONTINUOUS
 62
    7
370
    0
100
AcDbLine
 10
-18.01466941202242
 20
23.81557790794894
 11
-18.33326617443791
 21
23.26139570592796
  0
LINE
  5
9E
100
AcDbEntity
  8
0
  6
CONTINUOUS
 62
    7
370
    0
100
AcDbLine
 10
-18.33326617443791
 20
23.26139570592796
 11
-18.57503122848163
 21
22.69639776766127
  0
LINE
  5
9F
100
AcDbEntity
  8
0
  6
CONTINUOUS
 62
    7
370
    0
100
AcDbLine
 10
-18.57503122848163
 20
22.69639776766127
 11
-18.73996173893977
 21
22.12467213847394
  0
LINE
  5
A0
100
AcDbEntity
  8
0
  6
CONTINUOUS
 62
    7
370
    0
100
AcDbLine
 10
-18.73996173893977
 20
22.12467213847394
 11
-18.82805487059854
 21
21.55030686369103
  0
LINE
  5
A1
100
AcDbEntity
  8
0
  6
CONTINUOUS
 62
    7
370
    0
100
AcDbLine
 10
-18.82805487059854
 20
21.55030686369103
 11
-18.83930778824413
 21
20.97738998863761
  0
LINE
  5
A2
100
AcDbEntity
  8
0
  6
CONTINUOUS
 62
    7
370
    0
100
AcDbLine
 10
-18.83930778824413
 20
20.97738998863761
 11
-18.77371765666275
 21
20.41000955863871
  0
LINE
  5
A3
100
AcDbEntity
  8
0
  6
CONTINUOUS
 62
    7
370
    0
100
AcDbLine
 10
-18.77371765666275
 20
20.41000955863871
 11
-18.63128164064059
 21
19.8522536190194
  0
LINE
  5
A4
100
AcDbEntity
  8
0
  6
CONTINUOUS
 62
    7
370
    0
100
AcDbLine
 10
-18.63128164064059
 20
19.8522536190194
 11
-18.41199690496386
 21
19.30821021510475
  0
LINE
  5
A5
100
AcDbEntity
  8
0
  6
CONTINUOUS
 62
    7
370
    0
100
AcDbLine
 10
-18.41199690496386
 20
19.30821021510475
 11
-18.11589843656078
 21
18.78195569385945
  0
LINE
  5
A6
100
AcDbEntity
  8
0
  6
CONTINUOUS
 62
    7
370
    0
100
AcDbLine
 10
-18.11589843656078
 20
18.78195569385945
 11
-17.74529055088158
 21
18.27686450062649
  0
LINE
  5
A7
100
AcDbEntity
  8
0
  6
CONTINUOUS
 62
    7
370
    0
100
AcDbLine
 10
-17.74529055088158
 20
18.27686450062649
 11
-17.30599502258553
 21
17.79522313323521
  0
LINE
  5
A8
100
AcDbEntity
  8
0
  6
CONTINUOUS
 62
    7
370
    0
100
AcDbLine
 10
-17.30599502258553
 20
17.79522313323521
 11
-16.80413620346822
 21
17.33922450263209
  0
LINE
  5
A9
100
AcDbEntity
  8
0
  6
CONTINUOUS
 62
    7
370
    0
100
AcDbLine
 10
-16.80413620346822
 20
17.33922450263209
 11
-16.24583844532519
 21
16.91106151976358
  0
LINE
  5
AA
100
AcDbEntity
  8
0
  6
CONTINUOUS
 62
    7
370
    0
100
AcDbLine
 10
-16.24583844532519
 20
16.91106151976358
 11
-15.637226099952
 21
16.51292709557612
  0
LINE
  5
AB
100
AcDbEntity
  8
0
  6
CONTINUOUS
 62
    7
370
    0
100
AcDbLine
 10
-15.637226099952
 20
16.51292709557612
 11
-14.98442351914422
 21
16.14701414101619
  0
LINE
  5
AC
100
AcDbEntity
  8
0
  6
CONTINUOUS
 62
    7
370
    0
100
AcDbLine
 10
-14.98442351914422
 20
16.14701414101619
 11
-14.29355505469739
 21
15.81551556703022
  0
LINE
  5
AD
100
AcDbEntity
  8
0
  6
CONTINUOUS
 62
    7
370
    0
100
AcDbLine
 10
-14.29355505469739
 20
15.81551556703022
 11
-13.57074505840709
 21
15.52062428456469
  0
LINE
  5
AE
100
AcDbEntity
  8
0
  6
CONTINUOUS
 62
    7
370
    0
100
AcDbLine
 10
-13.57074505840709
 20
15.52062428456469
 11
-12.82193865700538
 21
15.26437751959724
  0
LINE
  5
AF
100
AcDbEntity
  8
0
  6
CONTINUOUS
 62
    7
370
    0
100
AcDbLine
 10
-12.82193865700538
 20
15.26437751959724
 11
-12.05001043930099
 21
15.04614525619438
  0
LINE
  5
B0
100
AcDbEntity
  8
0
  6
CONTINUOUS
 62
    7
370
    0
100
AcDbLine
 10
-12.05001043930099
 20
15.04614525619438
 11
-11.25525518191783
 21
14.86305650848391
  0
LINE
  5
B1
100
AcDbEntity
  8
0
  6
CONTINUOUS
 62
    7
370
    0
100
AcDbLine
 10
-11.25525518191783
 20
14.86305650848391
 11
-10.43788751544595
 21
14.71217067124157
  0
LINE
  5
B2
100
AcDbEntity
  8
0
  6
CONTINUOUS
 62
    7
370
    0
100
AcDbLine
 10
-10.43788751544595
 20
14.71217067124157
 11
-9.598122070475416
 21
14.59054713924314
  0
LINE
  5
B3
100
AcDbEntity
  8
0
  6
CONTINUOUS
 62
    7
370
    0
100
AcDbLine
 10
-9.598122070475416
 20
14.59054713924314
 11
-8.736173477596276
 21
14.49524530726436
  0
LINE
  5
B4
100
AcDbEntity
  8
0
  6
CONTINUOUS
 62
    7
370
    0
100
AcDbLine
 10
-8.736173477596276
 20
14.49524530726436
 11
-7.852256367398578
 21
14.42332457008101
  0
LINE
  5
B5
100
AcDbEntity
  8
0
  6
CONTINUOUS
 62
    7
370
    0
100
AcDbLine
 10
-7.852256367398578
 20
14.42332457008101
 11
-6.946585370472377
 21
14.37184432246885
  0
LINE
  5
B6
100
AcDbEntity
  8
0
  6
CONTINUOUS
 62
    7
370
    0
100
AcDbLine
 10
-6.946585370472377
 20
14.37184432246885
 11
-6.019375117407724
 21
14.33786395920363
  0
LINE
  5
B7
100
AcDbEntity
  8
0
  6
CONTINUOUS
 62
    7
370
    0
100
AcDbLine
 10
-6.019375117407724
 20
14.33786395920363
 11
-5.071197232660976
 21
14.31849174346988
  0
LINE
  5
B8
100
AcDbEntity
  8
0
  6
CONTINUOUS
 62
    7
370
    0
100
AcDbLine
 10
-5.071197232660976
 20
14.31849174346988
 11
-4.105261748481648
 21
14.31119710653559
  0
LINE
  5
B9
100
AcDbEntity
  8
0
  6
CONTINUOUS
 62
    7
370
    0
100
AcDbLine
 10
-4.105261748481648
 20
14.31119710653559
 11
-3.125961239301393
 21
14.31361135627277
  0
LINE
  5
BA
100
AcDbEntity
  8
0
  6
CONTINUOUS
 62
    7
370
    0
100
AcDbLine
 10
-3.125961239301393
 20
14.31361135627277
 11
-2.13769385758102
 21
14.32336656412233
  0
LINE
  5
BB
100
AcDbEntity
  8
0
  6
CONTINUOUS
 62
    7
370
    0
100
AcDbLine
 10
-2.13769385758102
 20
14.32336656412233
 11
-1.144857755781343
 21
14.33809480152516
  0
LINE
  5
BC
100
AcDbEntity
  8
0
  6
CONTINUOUS
 62
    7
370
    0
100
AcDbLine
 10
-1.144857755781343
 20
14.33809480152516
 11
-0.1518510863631728
 21
14.35542813992217
  0
LINE
  5
BD
100
AcDbEntity
  8
0
  6
CONTINUOUS
 62
    7
370
    0
100
AcDbLine
 10
-0.1518510863631728
 20
14.35542813992217
 11
0.8369279982126783
 21
14.37299865075423
  0
LINE
  5
BE
100
AcDbEntity
  8
0
  6
CONTINUOUS
 62
    7
370
    0
100
AcDbLine
 10
0.8369279982126783
 20
14.37299865075423
 11
1.817081345485399
 21
14.38843840546226
  0
LINE
  5
BF
100
AcDbEntity
  8
0
  6
CONTINUOUS
 62
    7
370
    0
100
AcDbLine
 10
1.817081345485399
 20
14.38843840546226
 11
2.784210836948399
 21
14.39937948435601
  0
LINE
  5
C0
100
AcDbEntity
  8
0
  6
CONTINUOUS
 62
    7
370
    0
100
AcDbLine
 10
2.784210836948399
 20
14.39937948435601
 11
3.734929748512577
 21
14.40371814411734
  0
LINE
  5
C1
100
AcDbEntity
  8
0
  6
CONTINUOUS
 62
    7
370
    0
100
AcDbLine
 10
3.734929748512577
 20
14.40371814411734
 11
4.669512402192052
 21
14.40030690721431
  0
LINE
  5
C2
100
AcDbEntity
  8
0
  6
CONTINUOUS
 62
    7
370
    0
100
AcDbLine
 10
4.669512402192052
 20
14.40030690721431
 11
5.589061229526857
 21
14.38821459844617
  0
LINE
  5
C3
100
AcDbEntity
  8
0
  6
CONTINUOUS
 62
    7
370
    0
100
AcDbLine
 10
5.589061229526857
 20
14.38821459844617
 11
6.494678662057011
 21
14.36651004261217
  0
LINE
  5
C4
100
AcDbEntity
  8
0
  6
CONTINUOUS
 62
    7
370
    0
100
AcDbLine
 10
6.494678662057011
 20
14.36651004261217
 11
7.387467131322545
 21
14.33426206451159
  0
LINE
  5
C5
100
AcDbEntity
  8
0
  6
CONTINUOUS
 62
    7
370
    0
100
AcDbLine
 10
7.387467131322545
 20
14.33426206451159
 11
8.268529068863485
 21
14.29053948894368
  0
LINE
  5
C6
100
AcDbEntity
  8
0
  6
CONTINUOUS
 62
    7
370
    0
100
AcDbLine
 10
8.268529068863485
 20
14.29053948894368
 11
9.13896690621986
 21
14.2344111407077
  0
LINE
  5
C7
100
AcDbEntity
  8
0
  6
CONTINUOUS
 62
    7
370
    0
100
AcDbLine
 10
9.13896690621986
 20
14.2344111407077
 11
9.999883074931688
 21
14.16494584460291
  0
LINE
  5
C8
100
AcDbEntity
  8
0
  6
CONTINUOUS
 62
    7
370
    0
100
AcDbLine
 10
9.999883074931688
 20
14.16494584460291
 11
10.85236998138878
 21
14.08121654546715
  0
LINE
  5
C9
100
AcDbEntity
  8
0
  6
CONTINUOUS
 62
    7
370
    0
100
AcDbLine
 10
10.85236998138878
 20
14.08121654546715
 11
11.6964857184358
 21
13.98272126024431
  0
LINE
  5
CA
100
AcDbEntity
  8
0
  6
CONTINUOUS
 62
    7
370
    0
100
AcDbLine
 10
11.6964857184358
 20
13.98272126024431
 11
12.53036918922248
 21
13.86974673576516
  0
LINE
  5
CB
100
AcDbEntity
  8
0
  6
CONTINUOUS
 62
    7
370
    0
100
AcDbLine
 10
12.53036918922248
 20
13.86974673576516
 11
13.35195080510266
 21
13.74266540278797
  0
LINE
  5
CC
100
AcDbEntity
  8
0
  6
CONTINUOUS
 62
    7
370
    0
100
AcDbLine
 10
13.35195080510266
 20
13.74266540278797
 11
14.15916097743015
 21
13.60184969207101
  0
LINE
  5
CD
100
AcDbEntity
  8
0
  6
CONTINUOUS
 62
    7
370
    0
100
AcDbLine
 10
14.15916097743015
 20
13.60184969207101
 11
14.94993011755878
 21
13.44767203437251
  0
LINE
  5
CE
100
AcDbEntity
  8
0
  6
CONTINUOUS
 62
    7
370
    0
100
AcDbLine
 10
14.94993011755878
 20
13.44767203437251
 11
15.72218863684235
 21
13.28050486045075
  0
LINE
  5
CF
100
AcDbEntity
  8
0
  6
CONTINUOUS
 62
    7
370
    0
100
AcDbLine
 10
15.72218863684235
 20
13.28050486045075
 11
16.47386694663469
 21
13.10072060106397
  0
LINE
  5
D0
100
AcDbEntity
  8
0
  6
CONTINUOUS
 62
    7
370
    0
100
AcDbLine
 10
16.47386694663469
 20
13.10072060106397
 11
17.20289545828961
 21
12.90869168697044
  0
LINE
  5
D1
100
AcDbEntity
  8
0
  6
CONTINUOUS
 62
    7
370
    0
100
AcDbLine
 10
17.20289545828961
 20
12.90869168697044
 11
17.90724963852445
 21
12.70478397328773
  0
LINE
  5
D2
100
AcDbEntity
  8
0
  6
CONTINUOUS
 62
    7
370
    0
100
AcDbLine
 10
17.90724963852445
 20
12.70478397328773
 11
18.58594122741712
 21
12.48921207539748
  0
LINE
  5
D3
100
AcDbEntity
  8
0
  6
CONTINUOUS
 62
    7
370
    0
100
AcDbLine
 10
18.58594122741712
 20
12.48921207539748
 11
19.23901823840615
 21
12.26203936894542
  0
LINE
  5
D4
100
AcDbEntity
  8
0
  6
CONTINUOUS
 62
    7
370
    0
100
AcDbLine
 10
19.23901823840615
 20
12.26203936894542
 11
19.86657374029357
 21
12.02332265393659
  0
LINE
  5
D5
100
AcDbEntity
  8
0
  6
CONTINUOUS
 62
    7
370
    0
100
AcDbLine
 10
19.86657374029357
 20
12.02332265393659
 11
20.4687008018814
 21
11.77311873037602
  0
LINE
  5
D6
100
AcDbEntity
  8
0
  6
CONTINUOUS
 62
    7
370
    0
100
AcDbLine
 10
20.4687008018814
 20
11.77311873037602
 11
21.0454924919717
 21
11.51148439826875
  0
LINE
  5
D7
100
AcDbEntity
  8
0
  6
CONTINUOUS
 62
    7
370
    0
100
AcDbLine
 10
21.0454924919717
 20
11.51148439826875
 11
21.59704187936648
 21
11.23847645761982
  0
LINE
  5
D8
100
AcDbEntity
  8
0
  6
CONTINUOUS
 62
    7
370
    0
100
AcDbLine
 10
21.59704187936648
 20
11.23847645761982
 11
22.12344203286776
 21
10.95415170843426
  0
LINE
  5
D9
100
AcDbEntity
  8
0
  6
CONTINUOUS
 62
    7
370
    0
100
AcDbLine
 10
22.12344203286776
 20
10.95415170843426
 11
22.62478602127759
 21
10.65856695071711
  0
LINE
  5
DA
100
AcDbEntity
  8
0
  6
CONTINUOUS
 62
    7
370
    0
100
AcDbLine
 10
22.62478602127759
 20
10.65856695071711
 11
23.10111811092307
 21
10.3519741483402
  0
LINE
  5
DB
100
AcDbEntity
  8
0
  6
CONTINUOUS
 62
    7
370
    0
100
AcDbLine
 10
23.10111811092307
 20
10.3519741483402
 11
23.55203333603306
 21
10.03642176983037
  0
LINE
  5
DC
100
AcDbEntity
  8
0
  6
CONTINUOUS
 62
    7
370
    0
100
AcDbLine
 10
23.55203333603306
 20
10.03642176983037
 11
23.97688462509492
 21
9.714926478314332
  0
LINE
  5
DD
100
AcDbEntity
  8
0
  6
CONTINUOUS
 62
    7
370
    0
100
AcDbLine
 10
23.97688462509492
 20
9.714926478314332
 11
24.37502255997063
 21
9.390514321206872
  0
LINE
  5
DE
100
AcDbEntity
  8
0
  6
CONTINUOUS
 62
    7
370
    0
100
AcDbLine
 10
24.37502255997063
 20
9.390514321206872
 11
24.74579772252217
 21
9.066211345922801
  0
LINE
  5
DF
100
AcDbEntity
  8
0
  6
CONTINUOUS
 62
    7
370
    0
100
AcDbLine
 10
24.74579772252217
 20
9.066211345922801
 11
25.08856069461151
 21
8.745043599876924
  0
LINE
  5
E0
100
AcDbEntity
  8
0
  6
CONTINUOUS
 62
    7
370
    0
100
AcDbLine
 10
25.08856069461151
 20
8.745043599876924
 11
25.40266205810063
 21
8.430037130484042
  0
LINE
  5
E1
100
AcDbEntity
  8
0
  6
CONTINUOUS
 62
    7
370
    0
100
AcDbLine
 10
25.40266205810063
 20
8.430037130484042
 11
25.68745239485152
 21
8.12421798515896
  0
LINE
  5
E2
100
AcDbEntity
  8
0
  6
CONTINUOUS
 62
    7
370
    0
100
AcDbLine
 10
25.68745239485152
 20
8.12421798515896
 11
25.94228228672614
 21
7.83061221131648
  0
LINE
  5
E3
100
AcDbEntity
  8
0
  6
CONTINUOUS
 62
    7
370
    0
100
AcDbLine
 10
25.94228228672614
 20
7.83061221131648
 11
26.16699911666528
 21
7.551786794884022
  0
LINE
  5
E4
100
AcDbEntity
  8
0
  6
CONTINUOUS
 62
    7
370
    0
100
AcDbLine
 10
26.16699911666528
 20
7.551786794884022
 11
26.36364660951472
 21
7.288279225427769
  0
LINE
  5
E5
100
AcDbEntity
  8
0
  6
CONTINUOUS
 62
    7
370
    0
100
AcDbLine
 10
26.36364660951472
 20
7.288279225427769
 11
26.53487524782799
 21
7.040066327274461
  0
LINE
  5
E6
100
AcDbEntity
  8
0
  6
CONTINUOUS
 62
    7
370
    0
100
AcDbLine
 10
26.53487524782799
 20
7.040066327274461
 11
26.68333553452853
 21
6.807124905928366
  0
LINE
  5
E7
100
AcDbEntity
  8
0
  6
CONTINUOUS
 62
    7
370
    0
100
AcDbLine
 10
26.68333553452853
 20
6.807124905928366
 11
26.81167797253975
 21
6.589431766893736
  0
LINE
  5
E8
100
AcDbEntity
  8
0
  6
CONTINUOUS
 62
    7
370
    0
100
AcDbLine
 10
26.81167797253975
 20
6.589431766893736
 11
26.92255306478505
 21
6.386963715674838
  0
LINE
  5
E9
100
AcDbEntity
  8
0
  6
CONTINUOUS
 62
    7
370
    0
100
AcDbLine
 10
26.92255306478505
 20
6.386963715674838
 11
27.01861131418789
 21
6.199697557775933
  0
LINE
  5
EA
100
AcDbEntity
  8
0
  6
CONTINUOUS
 62
    7
370
    0
100
AcDbLine
 10
27.01861131418789
 20
6.199697557775933
 11
27.10250322367166
 21
6.02761009870128
  0
LINE
  5
EB
100
AcDbEntity
  8
0
  6
CONTINUOUS
 62
    7
370
    0
100
AcDbLine
 10
27.10250322367166
 20
6.02761009870128
 11
27.17688375928993
 21
5.870686163115812
  0
LINE
  5
EC
100
AcDbEntity
  8
0
  6
CONTINUOUS
 62
    7
370
    0
100
AcDbLine
 10
27.17688375928993
 20
5.870686163115812
 11
27.24535407068708
 21
5.730610637746633
  0
LINE
  5
ED
100
AcDbEntity
  8
0
  6
CONTINUOUS
 62
    7
370
    0
100
AcDbLine
 10
27.24535407068708
 20
5.730610637746633
 11
27.31362636806615
 21
5.612861472318045
  0
LINE
  5
EE
100
AcDbEntity
  8
0
  6
CONTINUOUS
 62
    7
370
    0
100
AcDbLine
 10
27.31362636806615
 20
5.612861472318045
 11
27.38769850195951
 21
5.523429842837275
  0
LINE
  5
EF
100
AcDbEntity
  8
0
  6
CONTINUOUS
 62
    7
370
    0
100
AcDbLine
 10
27.38769850195951
 20
5.523429842837275
 11
27.47356832289951
 21
5.468306925311547
  0
LINE
  5
F0
100
AcDbEntity
  8
0
  6
CONTINUOUS
 62
    7
370
    0
100
AcDbLine
 10
27.47356832289951
 20
5.468306925311547
 11
27.57723368141852
 21
5.453483895748088
  0
LINE
  5
F1
100
AcDbEntity
  8
0
  6
CONTINUOUS
 62
    7
370
    0
100
AcDbLine
 10
27.57723368141852
 20
5.453483895748088
 11
27.70469242804889
 21
5.484951930154122
  0
LINE
  5
F2
100
AcDbEntity
  8
0
  6
CONTINUOUS
 62
    7
370
    0
100
AcDbLine
 10
27.70469242804889
 20
5.484951930154122
 11
27.86194241332298
 21
5.568702204536875
  0
LINE
  5
F3
100
AcDbEntity
  8
0
  6
CONTINUOUS
 62
    7
370
    0
100
AcDbLine
 10
27.86194241332298
 20
5.568702204536875
 11
28.05498148777316
 21
5.71072589490357
  0
LINE
  5
F4
100
AcDbEntity
  8
0
  6
CONTINUOUS
 62
    7
370
    0
100
AcDbLine
 10
28.05498148777316
 20
5.71072589490357
 11
28.28965625997219
 21
5.916828259524714
  0
LINE
  5
F5
100
AcDbEntity
  8
0
  6
CONTINUOUS
 62
    7
370
    0
100
AcDbLine
 10
28.28965625997219
 20
5.916828259524714
 11
28.56694502709588
 21
6.186830070360763
  0
LINE
  5
F6
100
AcDbEntity
  8
0
  6
CONTINUOUS
 62
    7
370
    0
100
AcDbLine
 10
28.56694502709588
 20
6.186830070360763
 11
28.88203173630659
 21
6.513429258308201
  0
LINE
  5
F7
100
AcDbEntity
  8
0
  6
CONTINUOUS
 62
    7
370
    0
100
AcDbLine
 10
28.88203173630659
 20
6.513429258308201
 11
29.22976212277428
 21
6.888907999215486
  0
LINE
  5
F8
100
AcDbEntity
  8
0
  6
CONTINUOUS
 62
    7
370
    0
100
AcDbLine
 10
29.22976212277428
 20
6.888907999215486
 11
29.6049819216689
 21
7.305548468931078
  0
LINE
  5
F9
100
AcDbEntity
  8
0
  6
CONTINUOUS
 62
    7
370
    0
100
AcDbLine
 10
29.6049819216689
 20
7.305548468931078
 11
30.00253686816038
 21
7.755632843303431
  0
LINE
  5
FA
100
AcDbEntity
  8
0
  6
CONTINUOUS
 62
    7
370
    0
100
AcDbLine
 10
30.00253686816038
 20
7.755632843303431
 11
30.41727269741868
 21
8.231443298181006
  0
LINE
  5
FB
100
AcDbEntity
  8
0
  6
CONTINUOUS
 62
    7
370
    0
100
AcDbLine
 10
30.41727269741868
 20
8.231443298181006
 11
30.84403514461374
 21
8.725262009412262
  0
LINE
  5
FC
100
AcDbEntity
  8
0
  6
CONTINUOUS
 62
    7
370
    0
100
AcDbLine
 10
30.84403514461374
 20
8.725262009412262
 11
31.27766994491551
 21
9.229371152845655
  0
LINE
  5
FD
100
AcDbEntity
  8
0
  6
CONTINUOUS
 62
    7
370
    0
100
AcDbLine
 10
31.27766994491551
 20
9.229371152845655
 11
31.71327736509047
 21
9.736434031448239
  0
LINE
  5
FE
100
AcDbEntity
  8
0
  6
CONTINUOUS
 62
    7
370
    0
100
AcDbLine
 10
31.71327736509047
 20
9.736434031448239
 11
32.14891660171496
 21
10.24354455094072
  0
LINE
  5
FF
100
AcDbEntity
  8
0
  6
CONTINUOUS
 62
    7
370
    0
100
AcDbLine
 10
32.14891660171496
 20
10.24354455094072
 11
32.58455583833941
 21
10.75065507043326
  0
LINE
  5
100
100
AcDbEntity
  8
0
  6
CONTINUOUS
 62
    7
370
    0
100
AcDbLine
 10
32.58455583833941
 20
10.75065507043326
 11
33.02019507496386
 21
11.25776558992587
  0
LINE
  5
101
100
AcDbEntity
  8
0
  6
CONTINUOUS
 62
    7
370
    0
100
AcDbLine
 10
33.02019507496386
 20
11.25776558992587
 11
33.45583431158828
 21
11.76487610941852
  0
LINE
  5
102
100
AcDbEntity
  8
0
  6
CONTINUOUS
 62
    7
370
    0
100
AcDbLine
 10
33.45583431158828
 20
11.76487610941852
 11
33.89147354821267
 21
12.27198662891121
  0
LINE
  5
103
100
AcDbEntity
  8
0
  6
CONTINUOUS
 62
    7
370
    0
100
AcDbLine
 10
33.89147354821267
 20
12.27198662891121
 11
34.32711278483706
 21
12.77909714840393
  0
LINE
  5
104
100
AcDbEntity
  8
0
  6
CONTINUOUS
 62
    7
370
    0
100
AcDbLine
 10
34.32711278483706
 20
12.77909714840393
 11
34.76275202146143
 21
13.28620766789666
  0
LINE
  5
105
100
AcDbEntity
  8
0
  6
CONTINUOUS
 62
    7
370
    0
100
AcDbLine
 10
34.76275202146143
 20
13.28620766789666
 11
35.19839125808581
 21
13.79331818738941
  0
LINE
  5
106
100
AcDbEntity
  8
0
  6
CONTINUOUS
 62
    7
370
    0
100
AcDbLine
 10
35.19839125808581
 20
13.79331818738941
 11
35.63278347610231
 21
14.30017906914753
  0
LINE
  5
107
100
AcDbEntity
  8
0
  6
CONTINUOUS
 62
    7
370
    0
100
AcDbLine
 10
35.63278347610231
 20
14.30017906914753
 11
36.05793680865781
 21
14.80519044006244
  0
LINE
  5
108
100
AcDbEntity
  8
0
  6
CONTINUOUS
 62
    7
370
    0
100
AcDbLine
 10
36.05793680865781
 20
14.80519044006244
 11
36.46358943870349
 21
15.30629801101204
  0
LINE
  5
109
100
AcDbEntity
  8
0
  6
CONTINUOUS
 62
    7
370
    0
100
AcDbLine
 10
36.46358943870349
 20
15.30629801101204
 11
36.8394778386026
 21
15.80144715043564
  0
LINE
  5
10A
100
AcDbEntity
  8
0
  6
CONTINUOUS
 62
    7
370
    0
100
AcDbLine
 10
36.8394778386026
 20
15.80144715043564
 11
37.17533848071839
 21
16.28858322677256
  0
LINE
  5
10B
100
AcDbEntity
  8
0
  6
CONTINUOUS
 62
    7
370
    0
100
AcDbLine
 10
37.17533848071839
 20
16.28858322677256
 11
37.46090783741413
 21
16.76565160846209
  0
LINE
  5
10C
100
AcDbEntity
  8
0
  6
CONTINUOUS
 62
    7
370
    0
100
AcDbLine
 10
37.46090783741413
 20
16.76565160846209
 11
37.68592238105304
 21
17.23059766394355
  0
LINE
  5
10D
100
AcDbEntity
  8
0
  6
CONTINUOUS
 62
    7
370
    0
100
AcDbLine
 10
37.68592238105304
 20
17.23059766394355
 11
37.84011858399839
 21
17.68136676165625
  0
LINE
  5
10E
100
AcDbEntity
  8
0
  6
CONTINUOUS
 62
    7
370
    0
100
AcDbLine
 10
37.84011858399839
 20
17.68136676165625
 11
37.91324102806738
 21
18.1159058934521
  0
LINE
  5
10F
100
AcDbEntity
  8
0
  6
CONTINUOUS
 62
    7
370
    0
100
AcDbLine
 10
37.91324102806738
 20
18.1159058934521
 11
37.89998207565938
 21
18.53315253579017
  0
LINE
  5
110
100
AcDbEntity
  8
0
  6
CONTINUOUS
 62
    7
370
    0
100
AcDbLine
 10
37.89998207565938
 20
18.53315253579017
 11
37.8083781956242
 21
18.93471549054831
  0
LINE
  5
111
100
AcDbEntity
  8
0
  6
CONTINUOUS
 62
    7
370
    0
100
AcDbLine
 10
37.8083781956242
 20
18.93471549054831
 11
37.6486929155986
 21
19.32264938928721
  0
LINE
  5
112
100
AcDbEntity
  8
0
  6
CONTINUOUS
 62
    7
370
    0
100
AcDbLine
 10
37.6486929155986
 20
19.32264938928721
 11
37.4311897632193
 21
19.69900886356755
  0
LINE
  5
113
100
AcDbEntity
  8
0
  6
CONTINUOUS
 62
    7
370
    0
100
AcDbLine
 10
37.4311897632193
 20
19.69900886356755
 11
37.16613226612308
 21
20.06584854495004
  0
LINE
  5
114
100
AcDbEntity
  8
0
  6
CONTINUOUS
 62
    7
370
    0
100
AcDbLine
 10
37.16613226612308
 20
20.06584854495004
 11
36.86378395194667
 21
20.42522306499535
  0
LINE
  5
115
100
AcDbEntity
  8
0
  6
CONTINUOUS
 62
    7
370
    0
100
AcDbLine
 10
36.86378395194667
 20
20.42522306499535
 11
36.5344083483268
 21
20.77918705526418
  0
LINE
  5
116
100
AcDbEntity
  8
0
  6
CONTINUOUS
 62
    7
370
    0
100
AcDbLine
 10
36.5344083483268
 20
20.77918705526418
 11
36.18826898290025
 21
21.12979514731721
  0
LINE
  5
117
100
AcDbEntity
  8
0
  6
CONTINUOUS
 62
    7
370
    0
100
AcDbLine
 10
36.18826898290025
 20
21.12979514731721
 11
35.83554505765385
 21
21.47908509176078
  0
LINE
  5
118
100
AcDbEntity
  8
0
  6
CONTINUOUS
 62
    7
370
    0
100
AcDbLine
 10
35.83554505765385
 20
21.47908509176078
 11
35.48238657971572
 21
21.82828804411869
  0
LINE
  5
119
100
AcDbEntity
  8
0
  6
CONTINUOUS
 62
    7
370
    0
100
AcDbLine
 10
35.48238657971572
 20
21.82828804411869
 11
35.12922810177759
 21
22.17749099647661
  0
LINE
  5
11A
100
AcDbEntity
  8
0
  6
CONTINUOUS
 62
    7
370
    0
100
AcDbLine
 10
35.12922810177759
 20
22.17749099647661
 11
34.77606962383945
 21
22.52669394883453
  0
LINE
  5
11B
100
AcDbEntity
  8
0
  6
CONTINUOUS
 62
    7
370
    0
100
AcDbLine
 10
34.77606962383945
 20
22.52669394883453
 11
34.42291114590132
 21
22.87589690119245
  0
LINE
  5
11C
100
AcDbEntity
  8
0
  6
CONTINUOUS
 62
    7
370
    0
100
AcDbLine
 10
34.42291114590132
 20
22.87589690119245
 11
34.06975266796318
 21
23.22509985355038
  0
LINE
  5
11D
100
AcDbEntity
  8
0
  6
CONTINUOUS
 62
    7
370
    0
100
AcDbLine
 10
34.06975266796318
 20
23.22509985355038
 11
33.71659419002505
 21
23.5743028059083
  0
LINE
  5
11E
100
AcDbEntity
  8
0
  6
CONTINUOUS
 62
    7
370
    0
100
AcDbLine
 10
33.71659419002505
 20
23.5743028059083
 11
33.36343571208692
 21
23.92350575826622
  0
LINE
  5
11F
100
AcDbEntity
  8
0
  6
CONTINUOUS
 62
    7
370
    0
100
AcDbLine
 10
33.36343571208692
 20
23.92350575826622
 11
33.01027723414879
 21
24.27270871062414
  0
LINE
  5
120
100
AcDbEntity
  8
0
  6
CONTINUOUS
 62
    7
370
    0
100
AcDbLine
 10
33.01027723414879
 20
24.27270871062414
 11
32.65728418197488
 21
24.62158291548608
  0
LINE
  5
121
100
AcDbEntity
  8
0
  6
CONTINUOUS
 62
    7
370
    0
100
AcDbLine
 10
32.65728418197488
 20
24.62158291548608
 11
32.30709724091251
 21
24.96488058874939
  0
LINE
  5
122
100
AcDbEntity
  8
0
  6
CONTINUOUS
 62
    7
370
    0
100
AcDbLine
 10
32.30709724091251
 20
24.96488058874939
 11
31.96426255603762
 21
25.29356726219099
  0
LINE
  5
123
100
AcDbEntity
  8
0
  6
CONTINUOUS
 62
    7
370
    0
100
AcDbLine
 10
31.96426255603762
 20
25.29356726219099
 11
31.63337528746736
 21
25.59851106092228
  0
LINE
  5
124
100
AcDbEntity
  8
0
  6
CONTINUOUS
 62
    7
370
    0
100
AcDbLine
 10
31.63337528746736
 20
25.59851106092228
 11
31.3190305953189
 21
25.8705801100547
  0
LINE
  5
125
100
AcDbEntity
  8
0
  6
CONTINUOUS
 62
    7
370
    0
100
AcDbLine
 10
31.3190305953189
 20
25.8705801100547
 11
31.0258236397094
 21
26.10064253469967
  0
LINE
  5
126
100
AcDbEntity
  8
0
  6
CONTINUOUS
 62
    7
370
    0
100
AcDbLine
 10
31.0258236397094
 20
26.10064253469967
 11
30.75834958075604
 21
26.27956645996861
  0
LINE
  5
127
100
AcDbEntity
  8
0
  6
CONTINUOUS
 62
    7
370
    0
100
AcDbLine
 10
30.75834958075604
 20
26.27956645996861
 11
30.52120357857598
 21
26.39822001097294
  0
LINE
  5
128
100
AcDbEntity
  8
0
  6
CONTINUOUS
 62
    7
370
    0
100
AcDbLine
 10
30.52120357857598
 20
26.39822001097294
 11
30.31898079328639
 21
26.4474713128241
  0
LINE
  5
129
100
AcDbEntity
  8
0
  6
CONTINUOUS
 62
    7
370
    0
100
AcDbLine
 10
30.31898079328639
 20
26.4474713128241
 11
30.15538997294479
 21
26.41995004057341
  0
LINE
  5
12A
100
AcDbEntity
  8
0
  6
CONTINUOUS
 62
    7
370
    0
100
AcDbLine
 10
30.15538997294479
 20
26.41995004057341
 11
30.02824699823624
 21
26.31999665327287
  0
LINE
  5
12B
100
AcDbEntity
  8
0
  6
CONTINUOUS
 62
    7
370
    0
100
AcDbLine
 10
30.02824699823624
 20
26.31999665327287
 11
29.93296380034004
 21
26.15672893341151
  0
LINE
  5
12C
100
AcDbEntity
  8
0
  6
CONTINUOUS
 62
    7
370
    0
100
AcDbLine
 10
29.93296380034004
 20
26.15672893341151
 11
29.86494521913904
 21
25.93927875587793
  0
LINE
  5
12D
100
AcDbEntity
  8
0
  6
CONTINUOUS
 62
    7
370
    0
100
AcDbLine
 10
29.86494521913904
 20
25.93927875587793
 11
29.81959609451606
 21
25.6767779955607
  0
LINE
  5
12E
100
AcDbEntity
  8
0
  6
CONTINUOUS
 62
    7
370
    0
100
AcDbLine
 10
29.81959609451606
 20
25.6767779955607
 11
29.79232126635394
 21
25.37835852734841
  0
LINE
  5
12F
100
AcDbEntity
  8
0
  6
CONTINUOUS
 62
    7
370
    0
100
AcDbLine
 10
29.79232126635394
 20
25.37835852734841
 11
29.77852557453551
 21
25.05315222612961
  0
LINE
  5
130
100
AcDbEntity
  8
0
  6
CONTINUOUS
 62
    7
370
    0
100
AcDbLine
 10
29.77852557453551
 20
25.05315222612961
 11
29.77361385894361
 21
24.71029096679289
  0
LINE
  5
131
100
AcDbEntity
  8
0
  6
CONTINUOUS
 62
    7
370
    0
100
AcDbLine
 10
29.77361385894361
 20
24.71029096679289
 11
29.77299118638254
 21
24.35890617327006
  0
LINE
  5
132
100
AcDbEntity
  8
0
  6
CONTINUOUS
 62
    7
370
    0
100
AcDbLine
 10
29.77299118638254
 20
24.35890617327006
 11
29.77299118638254
 21
24.0062839543302
  0
LINE
  5
133
100
AcDbEntity
  8
0
  6
CONTINUOUS
 62
    7
370
    0
100
AcDbLine
 10
29.77299118638254
 20
24.0062839543302
 11
29.77299118638254
 21
23.65366173539037
  0
LINE
  5
134
100
AcDbEntity
  8
0
  6
CONTINUOUS
 62
    7
370
    0
100
AcDbLine
 10
29.77299118638254
 20
23.65366173539037
 11
29.77299118638254
 21
23.30103951645052
  0
LINE
  5
135
100
AcDbEntity
  8
0
  6
CONTINUOUS
 62
    7
370
    0
100
AcDbLine
 10
29.77299118638254
 20
23.30103951645052
 11
29.77299118638254
 21
22.94841729751068
  0
LINE
  5
136
100
AcDbEntity
  8
0
  6
CONTINUOUS
 62
    7
370
    0
100
AcDbLine
 10
29.77299118638254
 20
22.94841729751068
 11
29.77299118638254
 21
22.59579507857083
  0
LINE
  5
137
100
AcDbEntity
  8
0
  6
CONTINUOUS
 62
    7
370
    0
100
AcDbLine
 10
29.77299118638254
 20
22.59579507857083
 11
29.77299118638254
 21
22.24317285963099
  0
LINE
  5
138
100
AcDbEntity
  8
0
  6
CONTINUOUS
 62
    7
370
    0
100
AcDbLine
 10
29.77299118638254
 20
22.24317285963099
 11
29.77299118638254
 21
21.89055064069114
  0
LINE
  5
139
100
AcDbEntity
  8
0
  6
CONTINUOUS
 62
    7
370
    0
100
AcDbLine
 10
29.77299118638254
 20
21.89055064069114
 11
29.77299118638254
 21
21.5379284217513
  0
LINE
  5
13A
100
AcDbEntity
  8
0
  6
CONTINUOUS
 62
    7
370
    0
100
AcDbLine
 10
29.77299118638254
 20
21.5379284217513
 11
29.77299118638254
 21
21.18532684963281
  0
LINE
  5
13B
100
AcDbEntity
  8
0
  6
CONTINUOUS
 62
    7
370
    0
100
AcDbLine
 10
29.77299118638254
 20
21.18532684963281
 11
29.77299118638254
 21
20.8343640233727
  0
LINE
  5
13C
100
AcDbEntity
  8
0
  6
CONTINUOUS
 62
    7
370
    0
100
AcDbLine
 10
29.77299118638254
 20
20.8343640233727
 11
29.77299118638254
 21
20.48936583439462
  0
LINE
  5
13D
100
AcDbEntity
  8
0
  6
CONTINUOUS
 62
    7
370
    0
100
AcDbLine
 10
29.77299118638254
 20
20.48936583439462
 11
29.77299118638254
 21
20.15492046522315
  0
LINE
  5
13E
100
AcDbEntity
  8
0
  6
CONTINUOUS
 62
    7
370
    0
100
AcDbLine
 10
29.77299118638254
 20
20.15492046522315
 11
29.77299118638255
 21
19.83561609838297
  0
LINE
  5
13F
100
AcDbEntity
  8
0
  6
CONTINUOUS
 62
    7
370
    0
100
AcDbLine
 10
29.77299118638255
 20
19.83561609838297
 11
29.77299118638254
 21
19.53604091639867
  0
LINE
  5
140
100
AcDbEntity
  8
0
  6
CONTINUOUS
 62
    7
370
    0
100
AcDbLine
 10
29.77299118638254
 20
19.53604091639867
 11
29.77299118638254
 21
19.26078310179488
  0
LINE
  5
141
100
AcDbEntity
  8
0
  6
CONTINUOUS
 62
    7
370
    0
100
AcDbLine
 10
29.77299118638254
 20
19.26078310179488
 11
29.77299118638254
 21
19.01443083709624
  0
LINE
  5
142
100
AcDbEntity
  8
0
  6
CONTINUOUS
 62
    7
370
    0
100
AcDbLine
 10
29.77299118638254
 20
19.01443083709624
 11
29.77299118638254
 21
18.80157230482737
  0
LINE
  5
143
100
AcDbEntity
  8
0
  6
CONTINUOUS
 62
    7
370
    0
100
AcDbLine
 10
29.77299118638254
 20
18.80157230482737
 11
29.77282435704397
 21
18.62656367275214
  0
LINE
  5
144
100
AcDbEntity
  8
0
  6
CONTINUOUS
 62
    7
370
    0
100
AcDbLine
 10
29.77282435704397
 20
18.62656367275214
 11
29.76902670872157
 21
18.48917564503278
  0
LINE
  5
145
100
AcDbEntity
  8
0
  6
CONTINUOUS
 62
    7
370
    0
100
AcDbLine
 10
29.76902670872157
 20
18.48917564503278
 11
29.75511177336264
 21
18.38497547090823
  0
LINE
  5
146
100
AcDbEntity
  8
0
  6
CONTINUOUS
 62
    7
370
    0
100
AcDbLine
 10
29.75511177336264
 20
18.38497547090823
 11
29.7244813202912
 21
18.30937496785384
  0
LINE
  5
147
100
AcDbEntity
  8
0
  6
CONTINUOUS
 62
    7
370
    0
100
AcDbLine
 10
29.7244813202912
 20
18.30937496785384
 11
29.67053711883127
 21
18.257785953345
  0
LINE
  5
148
100
AcDbEntity
  8
0
  6
CONTINUOUS
 62
    7
370
    0
100
AcDbLine
 10
29.67053711883127
 20
18.257785953345
 11
29.58668093830683
 21
18.22562024485707
  0
LINE
  5
149
100
AcDbEntity
  8
0
  6
CONTINUOUS
 62
    7
370
    0
100
AcDbLine
 10
29.58668093830683
 20
18.22562024485707
 11
29.4663145480419
 21
18.20828965986544
  0
LINE
  5
14A
100
AcDbEntity
  8
0
  6
CONTINUOUS
 62
    7
370
    0
100
AcDbLine
 10
29.4663145480419
 20
18.20828965986544
 11
29.30283971736049
 21
18.20120601584547
  0
LINE
  5
14B
100
AcDbEntity
  8
0
  6
CONTINUOUS
 62
    7
370
    0
100
AcDbLine
 10
29.30283971736049
 20
18.20120601584547
 11
29.08965821558661
 21
18.19978113027254
  0
LINE
  5
14C
100
AcDbEntity
  8
0
  6
CONTINUOUS
 62
    7
370
    0
100
AcDbLine
 10
29.08965821558661
 20
18.19978113027254
 11
28.8211629314595
 21
18.19977141578732
  0
LINE
  5
14D
100
AcDbEntity
  8
0
  6
CONTINUOUS
 62
    7
370
    0
100
AcDbLine
 10
28.8211629314595
 20
18.19977141578732
 11
28.49990974258026
 21
18.19977141578732
  0
LINE
  5
14E
100
AcDbEntity
  8
0
  6
CONTINUOUS
 62
    7
370
    0
100
AcDbLine
 10
28.49990974258026
 20
18.19977141578732
 11
28.13246893896909
 21
18.19977141578732
  0
LINE
  5
14F
100
AcDbEntity
  8
0
  6
CONTINUOUS
 62
    7
370
    0
100
AcDbLine
 10
28.13246893896909
 20
18.19977141578732
 11
27.72543875130196
 21
18.19977141578732
  0
LINE
  5
150
100
AcDbEntity
  8
0
  6
CONTINUOUS
 62
    7
370
    0
100
AcDbLine
 10
27.72543875130196
 20
18.19977141578732
 11
27.28541741025486
 21
18.19977141578732
  0
LINE
  5
151
100
AcDbEntity
  8
0
  6
CONTINUOUS
 62
    7
370
    0
100
AcDbLine
 10
27.28541741025486
 20
18.19977141578732
 11
26.81900314650379
 21
18.19977141578732
  0
LINE
  5
152
100
AcDbEntity
  8
0
  6
CONTINUOUS
 62
    7
370
    0
100
AcDbLine
 10
26.81900314650379
 20
18.19977141578732
 11
26.33279419072474
 21
18.19977141578732
  0
LINE
  5
153
100
AcDbEntity
  8
0
  6
CONTINUOUS
 62
    7
370
    0
100
AcDbLine
 10
26.33279419072474
 20
18.19977141578732
 11
25.8333887735937
 21
18.19977141578732
  0
LINE
  5
154
100
AcDbEntity
  8
0
  6
CONTINUOUS
 62
    7
370
    0
100
AcDbLine
 10
25.8333887735937
 20
18.19977141578732
 11
25.32738512578666
 21
18.19977141578732
  0
LINE
  5
155
100
AcDbEntity
  8
0
  6
CONTINUOUS
 62
    7
370
   -3
100
AcDbLine
 10
-31.57350489902996
 20
25.69338858278518
 11
-31.97702578713851
 21
25.29438730073104
  0
LINE
  5
156
100
AcDbEntity
  8
0
  6
CONTINUOUS
 62
    7
370
    0
100
AcDbLine
 10
-31.97702578713851
 20
25.29438730073104
 11
-32.38054667524707
 21
24.89538601867691
  0
LINE
  5
157
100
AcDbEntity
  8
0
  6
CONTINUOUS
 62
    7
370
    0
100
AcDbLine
 10
-32.38054667524707
 20
24.89538601867691
 11
-32.78406756335562
 21
24.49638473662277
  0
LINE
  5
158
100
AcDbEntity
  8
0
  6
CONTINUOUS
 62
    7
370
    0
100
AcDbLine
 10
-32.78406756335562
 20
24.49638473662277
 11
-33.18758845146417
 21
24.09738345456864
  0
LINE
  5
159
100
AcDbEntity
  8
0
  6
CONTINUOUS
 62
    7
370
    0
100
AcDbLine
 10
-33.18758845146417
 20
24.09738345456864
 11
-33.59110933957273
 21
23.6983821725145
  0
LINE
  5
15A
100
AcDbEntity
  8
0
  6
CONTINUOUS
 62
    7
370
    0
100
AcDbLine
 10
-33.59110933957273
 20
23.6983821725145
 11
-33.99463022768129
 21
23.29938089046037
  0
LINE
  5
15B
100
AcDbEntity
  8
0
  6
CONTINUOUS
 62
    7
370
    0
100
AcDbLine
 10
-33.99463022768129
 20
23.29938089046037
 11
-34.39815111578984
 21
22.90037960840623
  0
LINE
  5
15C
100
AcDbEntity
  8
0
  6
CONTINUOUS
 62
    7
370
    0
100
AcDbLine
 10
-34.39815111578984
 20
22.90037960840623
 11
-34.80167200389839
 21
22.5013783263521
  0
LINE
  5
15D
100
AcDbEntity
  8
0
  6
CONTINUOUS
 62
    7
370
    0
100
AcDbLine
 10
-34.80167200389839
 20
22.5013783263521
 11
-35.20519289200695
 21
22.10237704429796
  0
LINE
  5
15E
100
AcDbEntity
  8
0
  6
CONTINUOUS
 62
    7
370
    0
100
AcDbLine
 10
-35.20519289200695
 20
22.10237704429796
 11
-35.60824254436603
 21
21.70346087366533
  0
LINE
  5
15F
100
AcDbEntity
  8
0
  6
CONTINUOUS
 62
    7
370
    0
100
AcDbLine
 10
-35.60824254436603
 20
21.70346087366533
 11
-36.00584478009819
 21
21.30552857866864
  0
LINE
  5
160
100
AcDbEntity
  8
0
  6
CONTINUOUS
 62
    7
370
    0
100
AcDbLine
 10
-36.00584478009819
 20
21.30552857866864
 11
-36.39052095702009
 21
20.90993090119856
  0
LINE
  5
161
100
AcDbEntity
  8
0
  6
CONTINUOUS
 62
    7
370
    0
100
AcDbLine
 10
-36.39052095702009
 20
20.90993090119856
 11
-36.75476562162901
 21
20.5180234256254
  0
LINE
  5
162
100
AcDbEntity
  8
0
  6
CONTINUOUS
 62
    7
370
    0
100
AcDbLine
 10
-36.75476562162901
 20
20.5180234256254
 11
-37.09107332042218
 21
20.13116173631946
  0
LINE
  5
163
100
AcDbEntity
  8
0
  6
CONTINUOUS
 62
    7
370
    0
100
AcDbLine
 10
-37.09107332042218
 20
20.13116173631946
 11
-37.39193859989689
 21
19.75070141765102
  0
LINE
  5
164
100
AcDbEntity
  8
0
  6
CONTINUOUS
 62
    7
370
    0
100
AcDbLine
 10
-37.39193859989689
 20
19.75070141765102
 11
-37.64985600655038
 21
19.37799805399037
  0
LINE
  5
165
100
AcDbEntity
  8
0
  6
CONTINUOUS
 62
    7
370
    0
100
AcDbLine
 10
-37.64985600655038
 20
19.37799805399037
 11
-37.85732008687994
 21
19.01440722970783
  0
LINE
  5
166
100
AcDbEntity
  8
0
  6
CONTINUOUS
 62
    7
370
    0
100
AcDbLine
 10
-37.85732008687994
 20
19.01440722970783
 11
-38.00682538738284
 21
18.66128452917367
  0
LINE
  5
167
100
AcDbEntity
  8
0
  6
CONTINUOUS
 62
    7
370
    0
100
AcDbLine
 10
-38.00682538738284
 20
18.66128452917367
 11
-38.09108609288471
 21
18.3199458671653
  0
LINE
  5
168
100
AcDbEntity
  8
0
  6
CONTINUOUS
 62
    7
370
    0
100
AcDbLine
 10
-38.09108609288471
 20
18.3199458671653
 11
-38.10947760688921
 21
17.99050405408754
  0
LINE
  5
169
100
AcDbEntity
  8
0
  6
CONTINUOUS
 62
    7
370
    0
100
AcDbLine
 10
-38.10947760688921
 20
17.99050405408754
 11
-38.06907640178895
 21
17.67168098524376
  0
LINE
  5
16A
100
AcDbEntity
  8
0
  6
CONTINUOUS
 62
    7
370
    0
100
AcDbLine
 10
-38.06907640178895
 20
17.67168098524376
 11
-37.9773879310867
 21
17.36212107626368
  0
LINE
  5
16B
100
AcDbEntity
  8
0
  6
CONTINUOUS
 62
    7
370
    0
100
AcDbLine
 10
-37.9773879310867
 20
17.36212107626368
 11
-37.84191764828514
 21
17.06046874277697
  0
LINE
  5
16C
100
AcDbEntity
  8
0
  6
CONTINUOUS
 62
    7
370
    0
100
AcDbLine
 10
-37.84191764828514
 20
17.06046874277697
 11
-37.67017100688705
 21
16.76536840041337
  0
LINE
  5
16D
100
AcDbEntity
  8
0
  6
CONTINUOUS
 62
    7
370
    0
100
AcDbLine
 10
-37.67017100688705
 20
16.76536840041337
 11
-37.46965346039513
 21
16.47546446480257
  0
LINE
  5
16E
100
AcDbEntity
  8
0
  6
CONTINUOUS
 62
    7
370
    0
100
AcDbLine
 10
-37.46965346039513
 20
16.47546446480257
 11
-37.24787046231214
 21
16.18940135157427
  0
LINE
  5
16F
100
AcDbEntity
  8
0
  6
CONTINUOUS
 62
    7
370
    0
100
AcDbLine
 10
-37.24787046231214
 20
16.18940135157427
 11
-37.01232746614079
 21
15.90582347635818
  0
LINE
  5
170
100
AcDbEntity
  8
0
  6
CONTINUOUS
 62
    7
370
    0
100
AcDbLine
 10
-37.01232746614079
 20
15.90582347635818
 11
-36.77052413413884
 21
15.62337630075959
  0
LINE
  5
171
100
AcDbEntity
  8
0
  6
CONTINUOUS
 62
    7
370
    0
100
AcDbLine
 10
-36.77052413413884
 20
15.62337630075959
 11
-36.52799689651356
 21
15.34105987211031
  0
LINE
  5
172
100
AcDbEntity
  8
0
  6
CONTINUOUS
 62
    7
370
    0
100
AcDbLine
 10
-36.52799689651356
 20
15.34105987211031
 11
-36.28546965888829
 21
15.05874344346102
  0
LINE
  5
173
100
AcDbEntity
  8
0
  6
CONTINUOUS
 62
    7
370
    0
100
AcDbLine
 10
-36.28546965888829
 20
15.05874344346102
 11
-36.04294242126301
 21
14.77642701481174
  0
LINE
  5
174
100
AcDbEntity
  8
0
  6
CONTINUOUS
 62
    7
370
    0
100
AcDbLine
 10
-36.04294242126301
 20
14.77642701481174
 11
-35.80041518363774
 21
14.49411058616246
  0
LINE
  5
175
100
AcDbEntity
  8
0
  6
CONTINUOUS
 62
    7
370
    0
100
AcDbLine
 10
-35.80041518363774
 20
14.49411058616246
 11
-35.55788794601246
 21
14.21179415751317
  0
LINE
  5
176
100
AcDbEntity
  8
0
  6
CONTINUOUS
 62
    7
370
    0
100
AcDbLine
 10
-35.55788794601246
 20
14.21179415751317
 11
-35.31536070838718
 21
13.92947772886389
  0
LINE
  5
177
100
AcDbEntity
  8
0
  6
CONTINUOUS
 62
    7
370
    0
100
AcDbLine
 10
-35.31536070838718
 20
13.92947772886389
 11
-35.0728334707619
 21
13.64716130021461
  0
LINE
  5
178
100
AcDbEntity
  8
0
  6
CONTINUOUS
 62
    7
370
    0
100
AcDbLine
 10
-35.0728334707619
 20
13.64716130021461
 11
-34.83030623313662
 21
13.36484487156532
  0
LINE
  5
179
100
AcDbEntity
  8
0
  6
CONTINUOUS
 62
    7
370
    0
100
AcDbLine
 10
-34.83030623313662
 20
13.36484487156532
 11
-34.58777899551135
 21
13.08252844291604
  0
LINE
  5
17A
100
AcDbEntity
  8
0
  6
CONTINUOUS
 62
    7
370
    0
100
AcDbLine
 10
-34.58777899551135
 20
13.08252844291604
 11
-34.34558067924885
 21
12.80060005718389
  0
LINE
  5
17B
100
AcDbEntity
  8
0
  6
CONTINUOUS
 62
    7
370
    0
100
AcDbLine
 10
-34.34558067924885
 20
12.80060005718389
 11
-34.10588075200945
 21
12.5216191302501
  0
LINE
  5
17C
100
AcDbEntity
  8
0
  6
CONTINUOUS
 62
    7
370
    0
100
AcDbLine
 10
-34.10588075200945
 20
12.5216191302501
 11
-33.87148853629206
 21
12.24889994273315
  0
LINE
  5
17D
100
AcDbEntity
  8
0
  6
CONTINUOUS
 62
    7
370
    0
100
AcDbLine
 10
-33.87148853629206
 20
12.24889994273315
 11
-33.64521399702002
 21
11.98575753314781
  0
LINE
  5
17E
100
AcDbEntity
  8
0
  6
CONTINUOUS
 62
    7
370
    0
100
AcDbLine
 10
-33.64521399702002
 20
11.98575753314781
 11
-33.42986709911679
 21
11.73550694000889
  0
LINE
  5
17F
100
AcDbEntity
  8
0
  6
CONTINUOUS
 62
    7
370
    0
100
AcDbLine
 10
-33.42986709911679
 20
11.73550694000889
 11
-33.22825780750572
 21
11.50146320183117
  0
LINE
  5
180
100
AcDbEntity
  8
0
  6
CONTINUOUS
 62
    7
370
    0
100
AcDbLine
 10
-33.22825780750572
 20
11.50146320183117
 11
-33.04319608711024
 21
11.28694135712946
  0
LINE
  5
181
100
AcDbEntity
  8
0
  6
CONTINUOUS
 62
    7
370
    0
100
AcDbLine
 10
-33.04319608711024
 20
11.28694135712946
 11
-32.87749190285374
 21
11.09525644441854
  0
LINE
  5
182
100
AcDbEntity
  8
0
  6
CONTINUOUS
 62
    7
370
    0
100
AcDbLine
 10
-32.87749190285374
 20
11.09525644441854
 11
-32.73395521965962
 21
10.9297235022132
  0
LINE
  5
183
100
AcDbEntity
  8
0
  6
CONTINUOUS
 62
    7
370
    0
100
AcDbLine
 10
-32.73395521965962
 20
10.9297235022132
 11
-32.6151822343628
 21
10.7934053783966
  0
LINE
  5
184
100
AcDbEntity
  8
0
  6
CONTINUOUS
 62
    7
370
    0
100
AcDbLine
 10
-32.6151822343628
 20
10.7934053783966
 11
-32.52070716888666
 21
10.68575258847586
  0
LINE
  5
185
100
AcDbEntity
  8
0
  6
CONTINUOUS
 62
    7
370
    0
100
AcDbLine
 10
-32.52070716888666
 20
10.68575258847586
 11
-32.44777511174711
 21
10.60351506713701
  0
LINE
  5
186
100
AcDbEntity
  8
0
  6
CONTINUOUS
 62
    7
370
    0
100
AcDbLine
 10
-32.44777511174711
 20
10.60351506713701
 11
-32.39357606321487
 21
10.54337775929395
  0
LINE
  5
187
100
AcDbEntity
  8
0
  6
CONTINUOUS
 62
    7
370
    0
100
AcDbLine
 10
-32.39357606321487
 20
10.54337775929395
 11
-32.35530002356066
 21
10.50202560986061
  0
LINE
  5
188
100
AcDbEntity
  8
0
  6
CONTINUOUS
 62
    7
370
    0
100
AcDbLine
 10
-32.35530002356066
 20
10.50202560986061
 11
-32.33013699305518
 21
10.47614356375089
  0
LINE
  5
189
100
AcDbEntity
  8
0
  6
CONTINUOUS
 62
    7
370
    0
100
AcDbLine
 10
-32.33013699305518
 20
10.47614356375089
 11
-32.31527697196917
 21
10.46241656587871
  0
LINE
  5
18A
100
AcDbEntity
  8
0
  6
CONTINUOUS
 62
    7
370
    0
100
AcDbLine
 10
-32.31527697196917
 20
10.46241656587871
 11
-32.30790996057333
 21
10.45752956115799
  0
LINE
  5
18B
100
AcDbEntity
  8
0
  6
CONTINUOUS
 62
    7
370
    0
100
AcDbLine
 10
-32.30790996057333
 20
10.45752956115799
 11
-32.30522595913835
 21
10.45816749450263
  0
LINE
  5
18C
100
AcDbEntity
  8
0
  6
CONTINUOUS
 62
    7
370
    0
100
AcDbLine
 10
-32.30522595913835
 20
10.45816749450263
 11
-32.30443231361071
 21
10.46103577412958
  0
LINE
  5
18D
100
AcDbEntity
  8
0
  6
CONTINUOUS
 62
    7
370
    0
100
AcDbLine
 10
-32.30443231361071
 20
10.46103577412958
 11
-32.30377711047979
 21
10.46406760643732
  0
LINE
  5
18E
100
AcDbEntity
  8
0
  6
CONTINUOUS
 62
    7
370
    0
100
AcDbLine
 10
-32.30377711047979
 20
10.46406760643732
 11
-32.30312158407661
 21
10.46709928500575
  0
LINE
  5
18F
100
AcDbEntity
  8
0
  6
CONTINUOUS
 62
    7
370
    0
100
AcDbLine
 10
-32.30312158407661
 20
10.46709928500575
 11
-32.3024657341379
 21
10.47013080983895
  0
LINE
  5
190
100
AcDbEntity
  8
0
  6
CONTINUOUS
 62
    7
370
    0
100
AcDbLine
 10
-32.3024657341379
 20
10.47013080983895
 11
-32.30180956040044
 21
10.47316218094102
  0
LINE
  5
191
100
AcDbEntity
  8
0
  6
CONTINUOUS
 62
    7
370
    0
100
AcDbLine
 10
-32.30180956040044
 20
10.47316218094102
 11
-32.30115306260094
 21
10.47619339831605
  0
LINE
  5
192
100
AcDbEntity
  8
0
  6
CONTINUOUS
 62
    7
370
    0
100
AcDbLine
 10
-32.30115306260094
 20
10.47619339831605
 11
-32.30049624047617
 21
10.47922446196813
  0
LINE
  5
193
100
AcDbEntity
  8
0
  6
CONTINUOUS
 62
    7
370
    0
100
AcDbLine
 10
-32.30049624047617
 20
10.47922446196813
 11
-32.29983909376287
 21
10.48225537190136
  0
LINE
  5
194
100
AcDbEntity
  8
0
  6
CONTINUOUS
 62
    7
370
    0
100
AcDbLine
 10
-32.29983909376287
 20
10.48225537190136
 11
-32.29918162219779
 21
10.48528612811983
  0
LINE
  5
195
100
AcDbEntity
  8
0
  6
CONTINUOUS
 62
    7
370
    0
100
AcDbLine
 10
-32.29918162219779
 20
10.48528612811983
 11
-32.29852383854993
 21
10.48831676996277
  0
LINE
  5
196
100
AcDbEntity
  8
0
  6
CONTINUOUS
 62
    7
370
    0
100
AcDbLine
 10
-32.29852383854993
 20
10.48831676996277
 11
-32.29795509171475
 21
10.49161697915105
  0
LINE
  5
197
100
AcDbEntity
  8
0
  6
CONTINUOUS
 62
    7
370
    0
100
AcDbLine
 10
-32.29795509171475
 20
10.49161697915105
 11
-32.29786737870809
 21
10.49636991735139
  0
LINE
  5
198
100
AcDbEntity
  8
0
  6
CONTINUOUS
 62
    7
370
    0
100
AcDbLine
 10
-32.29786737870809
 20
10.49636991735139
 11
-32.29871672402783
 21
10.50395199977111
  0
LINE
  5
199
100
AcDbEntity
  8
0
  6
CONTINUOUS
 62
    7
370
    0
100
AcDbLine
 10
-32.29871672402783
 20
10.50395199977111
 11
-32.30095915217183
 21
10.51573964161758
  0
LINE
  5
19A
100
AcDbEntity
  8
0
  6
CONTINUOUS
 62
    7
370
    0
100
AcDbLine
 10
-32.30095915217183
 20
10.51573964161758
 11
-32.30505068763796
 21
10.53310925809811
  0
LINE
  5
19B
100
AcDbEntity
  8
0
  6
CONTINUOUS
 62
    7
370
    0
100
AcDbLine
 10
-32.30505068763796
 20
10.53310925809811
 11
-32.31144735492407
 21
10.55743726442005
  0
LINE
  5
19C
100
AcDbEntity
  8
0
  6
CONTINUOUS
 62
    7
370
    0
100
AcDbLine
 10
-32.31144735492407
 20
10.55743726442005
 11
-32.32060517852805
 21
10.59010007579074
  0
LINE
  5
19D
100
AcDbEntity
  8
0
  6
CONTINUOUS
 62
    7
370
    0
100
AcDbLine
 10
-32.32060517852805
 20
10.59010007579074
 11
-32.33298018294774
 21
10.63247410741751
  0
LINE
  5
19E
100
AcDbEntity
  8
0
  6
CONTINUOUS
 62
    7
370
    0
100
AcDbLine
 10
-32.33298018294774
 20
10.63247410741751
 11
-32.34902839268103
 21
10.68593577450771
  0
LINE
  5
19F
100
AcDbEntity
  8
0
  6
CONTINUOUS
 62
    7
370
    0
100
AcDbLine
 10
-32.34902839268103
 20
10.68593577450771
 11
-32.36916740027618
 21
10.75210434726721
  0
LINE
  5
1A0
100
AcDbEntity
  8
0
  6
CONTINUOUS
 62
    7
370
    0
100
AcDbLine
 10
-32.36916740027618
 20
10.75210434726721
 11
-32.3935095836145
 21
10.83452777524894
  0
LINE
  5
1A1
100
AcDbEntity
  8
0
  6
CONTINUOUS
 62
    7
370
    0
100
AcDbLine
 10
-32.3935095836145
 20
10.83452777524894
 11
-32.42202177217341
 21
10.93767374165917
  0
LINE
  5
1A2
100
AcDbEntity
  8
0
  6
CONTINUOUS
 62
    7
370
    0
100
AcDbLine
 10
-32.42202177217341
 20
10.93767374165917
 11
-32.45466989905828
 21
11.06601559396074
  0
LINE
  5
1A3
100
AcDbEntity
  8
0
  6
CONTINUOUS
 62
    7
370
    0
100
AcDbLine
 10
-32.45466989905828
 20
11.06601559396074
 11
-32.49141989737452
 21
11.22402667961645
  0
LINE
  5
1A4
100
AcDbEntity
  8
0
  6
CONTINUOUS
 62
    7
370
    0
100
AcDbLine
 10
-32.49141989737452
 20
11.22402667961645
 11
-32.53223770022753
 21
11.41618034608912
  0
LINE
  5
1A5
100
AcDbEntity
  8
0
  6
CONTINUOUS
 62
    7
370
    0
100
AcDbLine
 10
-32.53223770022753
 20
11.41618034608912
 11
-32.5770892407227
 21
11.64694994084157
  0
LINE
  5
1A6
100
AcDbEntity
  8
0
  6
CONTINUOUS
 62
    7
370
    0
100
AcDbLine
 10
-32.5770892407227
 20
11.64694994084157
 11
-32.62594045196543
 21
11.92080881133661
  0
LINE
  5
1A7
100
AcDbEntity
  8
0
  6
CONTINUOUS
 62
    7
370
    0
100
AcDbLine
 10
-32.62594045196543
 20
11.92080881133661
 11
-32.6787572670611
 21
12.24223030503707
  0
LINE
  5
1A8
100
AcDbEntity
  8
0
  6
CONTINUOUS
 62
    7
370
    0
100
AcDbLine
 10
-32.6787572670611
 20
12.24223030503707
 11
-32.73530743814141
 21
12.61552509353517
  0
LINE
  5
1A9
100
AcDbEntity
  8
0
  6
CONTINUOUS
 62
    7
370
    0
100
AcDbLine
 10
-32.73530743814141
 20
12.61552509353517
 11
-32.79080055494263
 21
13.04126230340001
  0
LINE
  5
1AA
100
AcDbEntity
  8
0
  6
CONTINUOUS
 62
    7
370
    0
100
AcDbLine
 10
-32.79080055494263
 20
13.04126230340001
 11
-32.8358880448056
 21
13.51626951617748
  0
LINE
  5
1AB
100
AcDbEntity
  8
0
  6
CONTINUOUS
 62
    7
370
    0
100
AcDbLine
 10
-32.8358880448056
 20
13.51626951617748
 11
-32.86102315409747
 21
14.03721163754293
  0
LINE
  5
1AC
100
AcDbEntity
  8
0
  6
CONTINUOUS
 62
    7
370
    0
100
AcDbLine
 10
-32.86102315409747
 20
14.03721163754293
 11
-32.85665912918537
 21
14.60075357317168
  0
LINE
  5
1AD
100
AcDbEntity
  8
0
  6
CONTINUOUS
 62
    7
370
    0
100
AcDbLine
 10
-32.85665912918537
 20
14.60075357317168
 11
-32.81324921643646
 21
15.20356022873907
  0
LINE
  5
1AE
100
AcDbEntity
  8
0
  6
CONTINUOUS
 62
    7
370
    0
100
AcDbLine
 10
-32.81324921643646
 20
15.20356022873907
 11
-32.72124666221787
 21
15.84229650992044
  0
LINE
  5
1AF
100
AcDbEntity
  8
0
  6
CONTINUOUS
 62
    7
370
    0
100
AcDbLine
 10
-32.72124666221787
 20
15.84229650992044
 11
-32.57110471289674
 21
16.51362732239113
  0
LINE
  5
1B0
100
AcDbEntity
  8
0
  6
CONTINUOUS
 62
    7
370
    0
100
AcDbLine
 10
-32.57110471289674
 20
16.51362732239113
 11
-32.3532766148402
 21
17.21421757182645
  0
LINE
  5
1B1
100
AcDbEntity
  8
0
  6
CONTINUOUS
 62
    7
370
    0
100
AcDbLine
 10
-32.3532766148402
 20
17.21421757182645
 11
-32.05825231585346
 21
17.94072338749588
  0
LINE
  5
1B2
100
AcDbEntity
  8
0
  6
CONTINUOUS
 62
    7
370
    0
100
AcDbLine
 10
-32.05825231585346
 20
17.94072338749588
 11
-31.68248115974277
 21
18.68837582976376
  0
LINE
  5
1B3
100
AcDbEntity
  8
0
  6
CONTINUOUS
 62
    7
370
    0
100
AcDbLine
 10
-31.68248115974277
 20
18.68837582976376
 11
-31.2349093299657
 21
19.44941759279167
  0
LINE
  5
1B4
100
AcDbEntity
  8
0
  6
CONTINUOUS
 62
    7
370
    0
100
AcDbLine
 10
-31.2349093299657
 20
19.44941759279167
 11
-30.72605658413558
 21
20.21571508233893
  0
LINE
  5
1B5
100
AcDbEntity
  8
0
  6
CONTINUOUS
 62
    7
370
    0
100
AcDbLine
 10
-30.72605658413558
 20
20.21571508233893
 11
-30.16644267986577
 21
20.97913470416493
  0
LINE
  5
1B6
100
AcDbEntity
  8
0
  6
CONTINUOUS
 62
    7
370
    0
100
AcDbLine
 10
-30.16644267986577
 20
20.97913470416493
 11
-29.56658737476962
 21
21.73154286402902
  0
LINE
  5
1B7
100
AcDbEntity
  8
0
  6
CONTINUOUS
 62
    7
370
    0
100
AcDbLine
 10
-29.56658737476962
 20
21.73154286402902
 11
-28.93701042646044
 21
22.46480596769054
  0
LINE
  5
1B8
100
AcDbEntity
  8
0
  6
CONTINUOUS
 62
    7
370
    0
100
AcDbLine
 10
-28.93701042646044
 20
22.46480596769054
 11
-28.28823159255162
 21
23.17079042090887
  0
LINE
  5
1B9
100
AcDbEntity
  8
0
  6
CONTINUOUS
 62
    7
370
    0
100
AcDbLine
 10
-28.28823159255162
 20
23.17079042090887
 11
-27.63077063065648
 21
23.84136262944336
  0
LINE
  5
1BA
100
AcDbEntity
  8
0
  6
CONTINUOUS
 62
    7
370
    0
100
AcDbLine
 10
-27.63077063065648
 20
23.84136262944336
 11
-26.97514729838837
 21
24.46838899905338
  0
LINE
  5
1BB
100
AcDbEntity
  8
0
  6
CONTINUOUS
 62
    7
370
    0
100
AcDbLine
 10
-26.97514729838837
 20
24.46838899905338
 11
-26.33090554299148
 21
25.04522834626698
  0
LINE
  5
1BC
100
AcDbEntity
  8
0
  6
CONTINUOUS
 62
    7
370
    0
100
AcDbLine
 10
-26.33090554299148
 20
25.04522834626698
 11
-25.70297680525714
 21
25.5722938851864
  0
LINE
  5
1BD
100
AcDbEntity
  8
0
  6
CONTINUOUS
 62
    7
370
    0
100
AcDbLine
 10
-25.70297680525714
 20
25.5722938851864
 11
-25.09493099939809
 21
26.05208115757918
  0
LINE
  5
1BE
100
AcDbEntity
  8
0
  6
CONTINUOUS
 62
    7
370
    0
100
AcDbLine
 10
-25.09493099939809
 20
26.05208115757918
 11
-24.51033784100904
 21
26.48708600898051
  0
LINE
  5
1BF
100
AcDbEntity
  8
0
  6
CONTINUOUS
 62
    7
370
    0
100
AcDbLine
 10
-24.51033784100904
 20
26.48708600898051
 11
-23.95276704568472
 21
26.87980428492563
  0
LINE
  5
1C0
100
AcDbEntity
  8
0
  6
CONTINUOUS
 62
    7
370
    0
100
AcDbLine
 10
-23.95276704568472
 20
26.87980428492563
 11
-23.42578832901983
 21
27.23273183094979
  0
LINE
  5
1C1
100
AcDbEntity
  8
0
  6
CONTINUOUS
 62
    7
370
    0
100
AcDbLine
 10
-23.42578832901983
 20
27.23273183094979
 11
-22.93297140660911
 21
27.54836449258819
  0
LINE
  5
1C2
100
AcDbEntity
  8
0
  6
CONTINUOUS
 62
    7
370
    0
100
AcDbLine
 10
-22.93297140660911
 20
27.54836449258819
 11
-22.47788599404727
 21
27.82919811537606
  0
LINE
  5
1C3
100
AcDbEntity
  8
0
  6
CONTINUOUS
 62
    7
370
    0
100
AcDbLine
 10
-22.47788599404727
 20
27.82919811537606
 11
-22.06410180692902
 21
28.07772854484863
  0
LINE
  5
1C4
100
AcDbEntity
  8
0
  6
CONTINUOUS
 62
    7
370
    0
100
AcDbLine
 10
-22.06410180692902
 20
28.07772854484863
 11
-21.69502698856588
 21
28.29643154236148
  0
LINE
  5
1C5
100
AcDbEntity
  8
0
  6
CONTINUOUS
 62
    7
370
    0
100
AcDbLine
 10
-21.69502698856588
 20
28.29643154236148
 11
-21.37219140447706
 21
28.48754939068192
  0
LINE
  5
1C6
100
AcDbEntity
  8
0
  6
CONTINUOUS
 62
    7
370
    0
100
AcDbLine
 10
-21.37219140447706
 20
28.48754939068192
 11
-21.09591312805776
 21
28.65317374122994
  0
LINE
  5
1C7
100
AcDbEntity
  8
0
  6
CONTINUOUS
 62
    7
370
    0
100
AcDbLine
 10
-21.09591312805776
 20
28.65317374122994
 11
-20.86649003616773
 21
28.79539373490309
  0
LINE
  5
1C8
100
AcDbEntity
  8
0
  6
CONTINUOUS
 62
    7
370
    0
100
AcDbLine
 10
-20.86649003616773
 20
28.79539373490309
 11
-20.68422000566674
 21
28.91629851259891
  0
LINE
  5
1C9
100
AcDbEntity
  8
0
  6
CONTINUOUS
 62
    7
370
    0
100
AcDbLine
 10
-20.68422000566674
 20
28.91629851259891
 11
-20.54940091341456
 21
29.01797721521495
  0
LINE
  5
1CA
100
AcDbEntity
  8
0
  6
CONTINUOUS
 62
    7
370
    0
100
AcDbLine
 10
-20.54940091341456
 20
29.01797721521495
 11
-20.46233063627098
 21
29.10251898364875
  0
LINE
  5
1CB
100
AcDbEntity
  8
0
  6
CONTINUOUS
 62
    7
370
    0
100
AcDbLine
 10
-20.46233063627098
 20
29.10251898364875
 11
-20.42330705109575
 21
29.17201295879787
  0
LINE
  5
1CC
100
AcDbEntity
  8
0
  6
CONTINUOUS
 62
    7
370
    0
100
AcDbLine
 10
-20.42330705109575
 20
29.17201295879787
 11
-20.43262803474864
 21
29.22854828155985
  0
LINE
  5
1CD
100
AcDbEntity
  8
0
  6
CONTINUOUS
 62
    7
370
    0
100
AcDbLine
 10
-20.43262803474864
 20
29.22854828155985
 11
-20.49053695975218
 21
29.27420374965638
  0
LINE
  5
1CE
100
AcDbEntity
  8
0
  6
CONTINUOUS
 62
    7
370
    0
100
AcDbLine
 10
-20.49053695975218
 20
29.27420374965638
 11
-20.59501232889439
 21
29.31062836114283
  0
LINE
  5
1CF
100
AcDbEntity
  8
0
  6
CONTINUOUS
 62
    7
370
    0
100
AcDbLine
 10
-20.59501232889439
 20
29.31062836114283
 11
-20.7410031254595
 21
29.33889620839595
  0
LINE
  5
1D0
100
AcDbEntity
  8
0
  6
CONTINUOUS
 62
    7
370
    0
100
AcDbLine
 10
-20.7410031254595
 20
29.33889620839595
 11
-20.9232468304784
 21
29.3600412474453
  0
LINE
  5
1D1
100
AcDbEntity
  8
0
  6
CONTINUOUS
 62
    7
370
    0
100
AcDbLine
 10
-20.9232468304784
 20
29.3600412474453
 11
-21.136480924982
 21
29.37509743432046
  0
LINE
  5
1D2
100
AcDbEntity
  8
0
  6
CONTINUOUS
 62
    7
370
    0
100
AcDbLine
 10
-21.136480924982
 20
29.37509743432046
 11
-21.37544289000119
 21
29.38509872505102
  0
LINE
  5
1D3
100
AcDbEntity
  8
0
  6
CONTINUOUS
 62
    7
370
    0
100
AcDbLine
 10
-21.37544289000119
 20
29.38509872505102
 11
-21.63487020656689
 21
29.39107907566654
  0
LINE
  5
1D4
100
AcDbEntity
  8
0
  6
CONTINUOUS
 62
    7
370
    0
100
AcDbLine
 10
-21.63487020656689
 20
29.39107907566654
 11
-21.90950035570997
 21
29.39407244219662
  0
LINE
  5
1D5
100
AcDbEntity
  8
0
  6
CONTINUOUS
 62
    7
370
    0
100
AcDbLine
 10
-21.90950035570997
 20
29.39407244219662
 11
-22.19407081846135
 21
29.39511278067082
  0
LINE
  5
1D6
100
AcDbEntity
  8
0
  6
CONTINUOUS
 62
    7
370
    0
100
AcDbLine
 10
-22.19407081846135
 20
29.39511278067082
 11
-22.48332027898842
 21
29.3952338107319
  0
LINE
  5
1D7
100
AcDbEntity
  8
0
  6
CONTINUOUS
 62
    7
370
    0
100
AcDbLine
 10
-22.48332027898842
 20
29.3952338107319
 11
-22.7731857453939
 21
29.3952338107319
  0
LINE
  5
1D8
100
AcDbEntity
  8
0
  6
CONTINUOUS
 62
    7
370
    0
100
AcDbLine
 10
-22.7731857453939
 20
29.3952338107319
 11
-23.06305121179938
 21
29.3952338107319
  0
LINE
  5
1D9
100
AcDbEntity
  8
0
  6
CONTINUOUS
 62
    7
370
    0
100
AcDbLine
 10
-23.06305121179938
 20
29.3952338107319
 11
-23.35291667820486
 21
29.3952338107319
  0
LINE
  5
1DA
100
AcDbEntity
  8
0
  6
CONTINUOUS
 62
    7
370
    0
100
AcDbLine
 10
-23.35291667820486
 20
29.3952338107319
 11
-23.64278214461033
 21
29.3952338107319
  0
LINE
  5
1DB
100
AcDbEntity
  8
0
  6
CONTINUOUS
 62
    7
370
    0
100
AcDbLine
 10
-23.64278214461033
 20
29.3952338107319
 11
-23.93264761101581
 21
29.3952338107319
  0
LINE
  5
1DC
100
AcDbEntity
  8
0
  6
CONTINUOUS
 62
    7
370
    0
100
AcDbLine
 10
-23.93264761101581
 20
29.3952338107319
 11
-24.2225130774213
 21
29.39523381073191
  0
LINE
  5
1DD
100
AcDbEntity
  8
0
  6
CONTINUOUS
 62
    7
370
    0
100
AcDbLine
 10
-24.2225130774213
 20
29.39523381073191
 11
-24.51237854382678
 21
29.39523381073191
  0
LINE
  5
1DE
100
AcDbEntity
  8
0
  6
CONTINUOUS
 62
    7
370
    0
100
AcDbLine
 10
-24.51237854382678
 20
29.39523381073191
 11
-24.80224401023225
 21
29.3952338107319
  0
LINE
  5
1DF
100
AcDbEntity
  8
0
  6
CONTINUOUS
 62
    7
370
    0
100
AcDbLine
 10
-24.80224401023225
 20
29.3952338107319
 11
-25.09210947663773
 21
29.3952338107319
  0
LINE
  5
1E0
100
AcDbEntity
  8
0
  6
CONTINUOUS
 62
    7
370
    0
100
AcDbLine
 10
-25.09210947663773
 20
29.3952338107319
 11
-25.38165014488533
 21
29.39523381073191
  0
LINE
  5
1E1
100
AcDbEntity
  8
0
  6
CONTINUOUS
 62
    7
370
    0
100
AcDbLine
 10
-25.38165014488533
 20
29.39523381073191
 11
-25.66838195866356
 21
29.3952338107319
  0
LINE
  5
1E2
100
AcDbEntity
  8
0
  6
CONTINUOUS
 62
    7
370
    0
100
AcDbLine
 10
-25.66838195866356
 20
29.3952338107319
 11
-25.94894000905677
 21
29.3952338107319
  0
LINE
  5
1E3
100
AcDbEntity
  8
0
  6
CONTINUOUS
 62
    7
370
    0
100
AcDbLine
 10
-25.94894000905677
 20
29.3952338107319
 11
-26.21995678876404
 21
29.3952338107319
  0
LINE
  5
1E4
100
AcDbEntity
  8
0
  6
CONTINUOUS
 62
    7
370
    0
100
AcDbLine
 10
-26.21995678876404
 20
29.3952338107319
 11
-26.47806479048445
 21
29.3952338107319
  0
LINE
  5
1E5
100
AcDbEntity
  8
0
  6
CONTINUOUS
 62
    7
370
    0
100
AcDbLine
 10
-26.47806479048445
 20
29.3952338107319
 11
-26.71989650691707
 21
29.39523381073189
  0
LINE
  5
1E6
100
AcDbEntity
  8
0
  6
CONTINUOUS
 62
    7
370
    0
100
AcDbLine
 10
-26.71989650691707
 20
29.39523381073189
 11
-26.94208443076099
 21
29.3952338107319
  0
LINE
  5
1E7
100
AcDbEntity
  8
0
  6
CONTINUOUS
 62
    7
370
    0
100
AcDbLine
 10
-26.94208443076099
 20
29.3952338107319
 11
-27.14126105471529
 21
29.39523381073189
  0
LINE
  5
1E8
100
AcDbEntity
  8
0
  6
CONTINUOUS
 62
    7
370
    0
100
AcDbLine
 10
-27.14126105471529
 20
29.39523381073189
 11
-27.31405887147904
 21
29.39523381073188
  0
LINE
  5
1E9
100
AcDbEntity
  8
0
  6
CONTINUOUS
 62
    7
370
    0
100
AcDbLine
 10
-27.31405887147904
 20
29.39523381073188
 11
-27.45743681727842
 21
29.39510134071447
  0
LINE
  5
1EA
100
AcDbEntity
  8
0
  6
CONTINUOUS
 62
    7
370
    0
100
AcDbLine
 10
-27.45743681727842
 20
29.39510134071447
 11
-27.57421414253792
 21
29.39232582890986
  0
LINE
  5
1EB
100
AcDbEntity
  8
0
  6
CONTINUOUS
 62
    7
370
    0
100
AcDbLine
 10
-27.57421414253792
 20
29.39232582890986
 11
-27.67227911277072
 21
29.38233970911805
  0
LINE
  5
1EC
100
AcDbEntity
  8
0
  6
CONTINUOUS
 62
    7
370
    0
100
AcDbLine
 10
-27.67227911277072
 20
29.38233970911805
 11
-27.75968713257585
 21
29.3605075904901
  0
LINE
  5
1ED
100
AcDbEntity
  8
0
  6
CONTINUOUS
 62
    7
370
    0
100
AcDbLine
 10
-27.75968713257585
 20
29.3605075904901
 11
-27.84449360655235
 21
29.32219408217711
  0
LINE
  5
1EE
100
AcDbEntity
  8
0
  6
CONTINUOUS
 62
    7
370
    0
100
AcDbLine
 10
-27.84449360655235
 20
29.32219408217711
 11
-27.93475393929925
 21
29.26276379333013
  0
LINE
  5
1EF
100
AcDbEntity
  8
0
  6
CONTINUOUS
 62
    7
370
    0
100
AcDbLine
 10
-27.93475393929925
 20
29.26276379333013
 11
-28.0385235354156
 21
29.17758133310027
  0
LINE
  5
1F0
100
AcDbEntity
  8
0
  6
CONTINUOUS
 62
    7
370
    0
100
AcDbLine
 10
-28.0385235354156
 20
29.17758133310027
 11
-28.16385779950043
 21
29.06201131063861
  0
LINE
  5
1F1
100
AcDbEntity
  8
0
  6
CONTINUOUS
 62
    7
370
    0
100
AcDbLine
 10
-28.16385779950043
 20
29.06201131063861
 11
-28.31881213615277
 21
28.91141833509621
  0
LINE
  5
1F2
100
AcDbEntity
  8
0
  6
CONTINUOUS
 62
    7
370
    0
100
AcDbLine
 10
-28.31881213615277
 20
28.91141833509621
 11
-28.5113964277741
 21
28.72120013312852
  0
LINE
  5
1F3
100
AcDbEntity
  8
0
  6
CONTINUOUS
 62
    7
370
    0
100
AcDbLine
 10
-28.5113964277741
 20
28.72120013312852
 11
-28.7453716969341
 21
28.48984548677701
  0
LINE
  5
1F4
100
AcDbEntity
  8
0
  6
CONTINUOUS
 62
    7
370
    0
100
AcDbLine
 10
-28.7453716969341
 20
28.48984548677701
 11
-29.01685014447905
 21
28.22140771363414
  0
LINE
  5
1F5
100
AcDbEntity
  8
0
  6
CONTINUOUS
 62
    7
370
    0
100
AcDbLine
 10
-29.01685014447905
 20
28.22140771363414
 11
-29.3211438731108
 21
27.92052220454883
  0
LINE
  5
1F6
100
AcDbEntity
  8
0
  6
CONTINUOUS
 62
    7
370
    0
100
AcDbLine
 10
-29.3211438731108
 20
27.92052220454883
 11
-29.65356498553124
 21
27.59182435037
  0
LINE
  5
1F7
100
AcDbEntity
  8
0
  6
CONTINUOUS
 62
    7
370
    0
100
AcDbLine
 10
-29.65356498553124
 20
27.59182435037
 11
-30.00942558444228
 21
27.23994954194657
  0
LINE
  5
1F8
100
AcDbEntity
  8
0
  6
CONTINUOUS
 62
    7
370
    0
100
AcDbLine
 10
-30.00942558444228
 20
27.23994954194657
 11
-30.38403777254578
 21
26.86953317012746
  0
LINE
  5
1F9
100
AcDbEntity
  8
0
  6
CONTINUOUS
 62
    7
370
    0
100
AcDbLine
 10
-30.38403777254578
 20
26.86953317012746
 11
-30.77271365254362
 21
26.48521062576158
  0
LINE
  5
1FA
100
AcDbEntity
  8
0
  6
CONTINUOUS
 62
    7
370
    0
100
AcDbLine
 10
-30.77271365254362
 20
26.48521062576158
 11
-31.1707653271377
 21
26.09161729969787
  0
LINE
  5
1FB
100
AcDbEntity
  8
0
  6
CONTINUOUS
 62
    7
370
    0
100
AcDbLine
 10
-31.1707653271377
 20
26.09161729969787
 11
-31.57350489902991
 21
25.69338858278523
  0
ARC
  5
1FC
100
AcDbEntity
  8
0
  6
ByLayer
 62
  256
370
   -1
100
AcDbCircle
 10
7.573602816392014
 20
17.35796368023478
 40
12.94883620053234
100
AcDbArc
 50
30.96185440598586
 51
68.37293208033451
  0
ARC
  5
1FD
100
AcDbEntity
  8
0
  6
ByLayer
 62
  256
370
   -1
100
AcDbCircle
 10
15.59980942426434
 20
28.36086395205524
 40
5.321360421642136
100
AcDbArc
 50
305.3337977994772
 51
11.20854913072123
  0
LINE
  5
1FE
100
AcDbEntity
  8
0
  6
ByLayer
 62
  256
370
   -1
100
AcDbLine
 10
20.81967108263045
 20
29.3952338107319
 11
12.34607458201402
 21
29.39523381073187
  0
LINE
  5
1FF
100
AcDbEntity
  8
0
  6
CONTINUOUS
 62
    7
370
   -3
100
AcDbLine
 10
-24.47175224540607
 20
1.306859152429989
 11
-24.12197838490248
 21
0.8997011437084454
  0
LINE
  5
200
100
AcDbEntity
  8
0
  6
CONTINUOUS
 62
    7
370
    0
100
AcDbLine
 10
-24.12197838490248
 20
0.8997011437084454
 11
-23.77201025148007
 21
0.4923169895148796
  0
LINE
  5
201
100
AcDbEntity
  8
0
  6
CONTINUOUS
 62
    7
370
    0
100
AcDbLine
 10
-23.77201025148007
 20
0.4923169895148796
 11
-23.42187150658405
 21
0.08473423320806381
  0
LINE
  5
202
100
AcDbEntity
  8
0
  6
CONTINUOUS
 62
    7
370
    0
100
AcDbLine
 10
-23.42187150658405
 20
0.08473423320806381
 11
-23.07158581165967
 21
-0.3230195818532311
  0
LINE
  5
203
100
AcDbEntity
  8
0
  6
CONTINUOUS
 62
    7
370
    0
100
AcDbLine
 10
-23.07158581165967
 20
-0.3230195818532311
 11
-22.72117682815218
 21
-0.7309169123102321
  0
LINE
  5
204
100
AcDbEntity
  8
0
  6
CONTINUOUS
 62
    7
370
    0
100
AcDbLine
 10
-22.72117682815218
 20
-0.7309169123102321
 11
-22.37066821750683
 21
-1.138930214804168
  0
LINE
  5
205
100
AcDbEntity
  8
0
  6
CONTINUOUS
 62
    7
370
    0
100
AcDbLine
 10
-22.37066821750683
 20
-1.138930214804168
 11
-22.02008364116885
 21
-1.547031945976265
  0
LINE
  5
206
100
AcDbEntity
  8
0
  6
CONTINUOUS
 62
    7
370
    0
100
AcDbLine
 10
-22.02008364116885
 20
-1.547031945976265
 11
-21.66944676058349
 21
-1.955194562467754
  0
LINE
  5
207
100
AcDbEntity
  8
0
  6
CONTINUOUS
 62
    7
370
    0
100
AcDbLine
 10
-21.66944676058349
 20
-1.955194562467754
 11
-21.318781237196
 21
-2.36339052091986
  0
LINE
  5
208
100
AcDbEntity
  8
0
  6
CONTINUOUS
 62
    7
370
    0
100
AcDbLine
 10
-21.318781237196
 20
-2.36339052091986
 11
-20.96819361778301
 21
-2.770972071136229
  0
LINE
  5
209
100
AcDbEntity
  8
0
  6
CONTINUOUS
 62
    7
370
    0
100
AcDbLine
 10
-20.96819361778301
 20
-2.770972071136229
 11
-20.61842415966688
 21
-3.172549591146586
  0
LINE
  5
20A
100
AcDbEntity
  8
0
  6
CONTINUOUS
 62
    7
370
    0
100
AcDbLine
 10
-20.61842415966688
 20
-3.172549591146586
 11
-20.27050563785359
 21
-3.560544634197703
  0
LINE
  5
20B
100
AcDbEntity
  8
0
  6
CONTINUOUS
 62
    7
370
    0
100
AcDbLine
 10
-20.27050563785359
 20
-3.560544634197703
 11
-19.92547239910064
 21
-3.927366992577066
  0
LINE
  5
20C
100
AcDbEntity
  8
0
  6
CONTINUOUS
 62
    7
370
    0
100
AcDbLine
 10
-19.92547239910064
 20
-3.927366992577066
 11
-19.5843587901655
 21
-4.265426458572161
  0
LINE
  5
20D
100
AcDbEntity
  8
0
  6
CONTINUOUS
 62
    7
370
    0
100
AcDbLine
 10
-19.5843587901655
 20
-4.265426458572161
 11
-19.24819915780563
 21
-4.567132824470471
  0
LINE
  5
20E
100
AcDbEntity
  8
0
  6
CONTINUOUS
 62
    7
370
    0
100
AcDbLine
 10
-19.24819915780563
 20
-4.567132824470471
 11
-18.91802784877854
 21
-4.824895882559483
  0
LINE
  5
20F
100
AcDbEntity
  8
0
  6
CONTINUOUS
 62
    7
370
    0
100
AcDbLine
 10
-18.91802784877854
 20
-4.824895882559483
 11
-18.59487920984167
 21
-5.031125425126678
  0
LINE
  5
210
100
AcDbEntity
  8
0
  6
CONTINUOUS
 62
    7
370
    0
100
AcDbLine
 10
-18.59487920984167
 20
-5.031125425126678
 11
-18.27978758775252
 21
-5.178231244459544
  0
LINE
  5
211
100
AcDbEntity
  8
0
  6
CONTINUOUS
 62
    7
370
    0
100
AcDbLine
 10
-18.27978758775252
 20
-5.178231244459544
 11
-17.97369214036837
 21
-5.259163898607378
  0
LINE
  5
212
100
AcDbEntity
  8
0
  6
CONTINUOUS
 62
    7
370
    0
100
AcDbLine
 10
-17.97369214036837
 20
-5.259163898607378
 11
-17.67598182674806
 21
-5.275680586230333
  0
LINE
  5
213
100
AcDbEntity
  8
0
  6
CONTINUOUS
 62
    7
370
    0
100
AcDbLine
 10
-17.67598182674806
 20
-5.275680586230333
 11
-17.38478440666043
 21
-5.236703347618596
  0
LINE
  5
214
100
AcDbEntity
  8
0
  6
CONTINUOUS
 62
    7
370
    0
100
AcDbLine
 10
-17.38478440666043
 20
-5.236703347618596
 11
-17.09819102325755
 21
-5.151362241146529
  0
LINE
  5
215
100
AcDbEntity
  8
0
  6
CONTINUOUS
 62
    7
370
    0
100
AcDbLine
 10
-17.09819102325755
 20
-5.151362241146529
 11
-16.81429281969153
 21
-5.028787325188503
  0
LINE
  5
216
100
AcDbEntity
  8
0
  6
CONTINUOUS
 62
    7
370
    0
100
AcDbLine
 10
-16.81429281969153
 20
-5.028787325188503
 11
-16.53118093911444
 21
-4.878108658118883
  0
LINE
  5
217
100
AcDbEntity
  8
0
  6
CONTINUOUS
 62
    7
370
    0
100
AcDbLine
 10
-16.53118093911444
 20
-4.878108658118883
 11
-16.24694652467837
 21
-4.708456298312036
  0
LINE
  5
218
100
AcDbEntity
  8
0
  6
CONTINUOUS
 62
    7
370
    0
100
AcDbLine
 10
-16.24694652467837
 20
-4.708456298312036
 11
-15.95968071953538
 21
-4.528960304142326
  0
LINE
  5
219
100
AcDbEntity
  8
0
  6
CONTINUOUS
 62
    7
370
    0
100
AcDbLine
 10
-15.95968071953538
 20
-4.528960304142326
 11
-15.66747466683758
 21
-4.348750733984122
  0
LINE
  5
21A
100
AcDbEntity
  8
0
  6
CONTINUOUS
 62
    7
370
    0
100
AcDbLine
 10
-15.66747466683758
 20
-4.348750733984122
 11
-15.36844141400831
 21
-4.1768834197505
  0
LINE
  5
21B
100
AcDbEntity
  8
0
  6
CONTINUOUS
 62
    7
370
    0
100
AcDbLine
 10
-15.36844141400831
 20
-4.1768834197505
 11
-15.06172880967119
 21
-4.018907588168672
  0
LINE
  5
21C
100
AcDbEntity
  8
0
  6
CONTINUOUS
 62
    7
370
    0
100
AcDbLine
 10
-15.06172880967119
 20
-4.018907588168672
 11
-14.74794577481847
 21
-3.875421366234467
  0
LINE
  5
21D
100
AcDbEntity
  8
0
  6
CONTINUOUS
 62
    7
370
    0
100
AcDbLine
 10
-14.74794577481847
 20
-3.875421366234467
 11
-14.42781158198976
 21
-3.746648935389455
  0
LINE
  5
21E
100
AcDbEntity
  8
0
  6
CONTINUOUS
 62
    7
370
    0
100
AcDbLine
 10
-14.42781158198976
 20
-3.746648935389455
 11
-14.10204550372471
 21
-3.632814477075205
  0
LINE
  5
21F
100
AcDbEntity
  8
0
  6
CONTINUOUS
 62
    7
370
    0
100
AcDbLine
 10
-14.10204550372471
 20
-3.632814477075205
 11
-13.77136681256295
 21
-3.534142172733292
  0
LINE
  5
220
100
AcDbEntity
  8
0
  6
CONTINUOUS
 62
    7
370
    0
100
AcDbLine
 10
-13.77136681256295
 20
-3.534142172733292
 11
-13.43649478104411
 21
-3.450856203805286
  0
LINE
  5
221
100
AcDbEntity
  8
0
  6
CONTINUOUS
 62
    7
370
    0
100
AcDbLine
 10
-13.43649478104411
 20
-3.450856203805286
 11
-13.09814868170782
 21
-3.383180751732755
  0
LINE
  5
222
100
AcDbEntity
  8
0
  6
CONTINUOUS
 62
    7
370
    0
100
AcDbLine
 10
-13.09814868170782
 20
-3.383180751732755
 11
-12.75704778709371
 21
-3.331339997957275
  0
LINE
  5
223
100
AcDbEntity
  8
0
  6
CONTINUOUS
 62
    7
370
    0
100
AcDbLine
 10
-12.75704778709371
 20
-3.331339997957275
 11
-12.41391099969368
 21
-3.295556819508553
  0
LINE
  5
224
100
AcDbEntity
  8
0
  6
CONTINUOUS
 62
    7
370
    0
100
AcDbLine
 10
-12.41391099969368
 20
-3.295556819508553
 11
-12.06931276632625
 21
-3.275544889675126
  0
LINE
  5
225
100
AcDbEntity
  8
0
  6
CONTINUOUS
 62
    7
370
    0
100
AcDbLine
 10
-12.06931276632625
 20
-3.275544889675126
 11
-11.72346446215493
 21
-3.269738060463995
  0
LINE
  5
226
100
AcDbEntity
  8
0
  6
CONTINUOUS
 62
    7
370
    0
100
AcDbLine
 10
-11.72346446215493
 20
-3.269738060463995
 11
-11.37652132473056
 21
-3.276372299771739
  0
LINE
  5
227
100
AcDbEntity
  8
0
  6
CONTINUOUS
 62
    7
370
    0
100
AcDbLine
 10
-11.37652132473056
 20
-3.276372299771739
 11
-11.02863859160392
 21
-3.293683575494934
  0
LINE
  5
228
100
AcDbEntity
  8
0
  6
CONTINUOUS
 62
    7
370
    0
100
AcDbLine
 10
-11.02863859160392
 20
-3.293683575494934
 11
-10.67997150032584
 21
-3.319907855530158
  0
LINE
  5
229
100
AcDbEntity
  8
0
  6
CONTINUOUS
 62
    7
370
    0
100
AcDbLine
 10
-10.67997150032584
 20
-3.319907855530158
 11
-10.33067528844711
 21
-3.353281107773989
  0
LINE
  5
22A
100
AcDbEntity
  8
0
  6
CONTINUOUS
 62
    7
370
    0
100
AcDbLine
 10
-10.33067528844711
 20
-3.353281107773989
 11
-9.980905193518552
 21
-3.392039300123004
  0
LINE
  5
22B
100
AcDbEntity
  8
0
  6
CONTINUOUS
 62
    7
370
    0
100
AcDbLine
 10
-9.980905193518552
 20
-3.392039300123004
 11
-9.630816453090967
 21
-3.434418400473783
  0
LINE
  5
22C
100
AcDbEntity
  8
0
  6
CONTINUOUS
 62
    7
370
    0
100
AcDbLine
 10
-9.630816453090967
 20
-3.434418400473783
 11
-9.28056430471516
 21
-3.478654376722902
  0
LINE
  5
22D
100
AcDbEntity
  8
0
  6
CONTINUOUS
 62
    7
370
    0
100
AcDbLine
 10
-9.28056430471516
 20
-3.478654376722902
 11
-8.930365899178586
 21
-3.523469685625251
  0
LINE
  5
22E
100
AcDbEntity
  8
0
  6
CONTINUOUS
 62
    7
370
    0
100
AcDbLine
 10
-8.930365899178586
 20
-3.523469685625251
 11
-8.580728472863886
 21
-3.569866157744594
  0
LINE
  5
22F
100
AcDbEntity
  8
0
  6
CONTINUOUS
 62
    7
370
    0
100
AcDbLine
 10
-8.580728472863886
 20
-3.569866157744594
 11
-8.232244148683236
 21
-3.619512627230272
  0
LINE
  5
230
100
AcDbEntity
  8
0
  6
CONTINUOUS
 62
    7
370
    0
100
AcDbLine
 10
-8.232244148683236
 20
-3.619512627230272
 11
-7.885505060164928
 21
-3.674078011648777
  0
LINE
  5
231
100
AcDbEntity
  8
0
  6
CONTINUOUS
 62
    7
370
    0
100
AcDbLine
 10
-7.885505060164928
 20
-3.674078011648777
 11
-7.541103340837256
 21
-3.735231228566604
  0
LINE
  5
232
100
AcDbEntity
  8
0
  6
CONTINUOUS
 62
    7
370
    0
100
AcDbLine
 10
-7.541103340837256
 20
-3.735231228566604
 11
-7.199631124228517
 21
-3.804641195550247
  0
LINE
  5
233
100
AcDbEntity
  8
0
  6
CONTINUOUS
 62
    7
370
    0
100
AcDbLine
 10
-7.199631124228517
 20
-3.804641195550247
 11
-6.861680543867005
 21
-3.883976830166203
  0
LINE
  5
234
100
AcDbEntity
  8
0
  6
CONTINUOUS
 62
    7
370
    0
100
AcDbLine
 10
-6.861680543867005
 20
-3.883976830166203
 11
-6.527843733281014
 21
-3.974907049980965
  0
LINE
  5
235
100
AcDbEntity
  8
0
  6
CONTINUOUS
 62
    7
370
    0
100
AcDbLine
 10
-6.527843733281014
 20
-3.974907049980965
 11
-6.19871282599884
 21
-4.079100772561028
  0
LINE
  5
236
100
AcDbEntity
  8
0
  6
CONTINUOUS
 62
    7
370
    0
100
AcDbLine
 10
-6.19871282599884
 20
-4.079100772561028
 11
-5.874883159970016
 21
-4.198089154589912
  0
LINE
  5
237
100
AcDbEntity
  8
0
  6
CONTINUOUS
 62
    7
370
    0
100
AcDbLine
 10
-5.874883159970016
 20
-4.198089154589912
 11
-5.556979222400116
 21
-4.332150200637478
  0
LINE
  5
238
100
AcDbEntity
  8
0
  6
CONTINUOUS
 62
    7
370
    0
100
AcDbLine
 10
-5.556979222400116
 20
-4.332150200637478
 11
-5.245641060155279
 21
-4.480892991802468
  0
LINE
  5
239
100
AcDbEntity
  8
0
  6
CONTINUOUS
 62
    7
370
    0
100
AcDbLine
 10
-5.245641060155279
 20
-4.480892991802468
 11
-4.941508866075643
 21
-4.643920333633198
  0
LINE
  5
23A
100
AcDbEntity
  8
0
  6
CONTINUOUS
 62
    7
370
    0
100
AcDbLine
 10
-4.941508866075643
 20
-4.643920333633198
 11
-4.64522283300135
 21
-4.820835031677989
  0
LINE
  5
23B
100
AcDbEntity
  8
0
  6
CONTINUOUS
 62
    7
370
    0
100
AcDbLine
 10
-4.64522283300135
 20
-4.820835031677989
 11
-4.35742315377254
 21
-5.011239891485157
  0
LINE
  5
23C
100
AcDbEntity
  8
0
  6
CONTINUOUS
 62
    7
370
    0
100
AcDbLine
 10
-4.35742315377254
 20
-5.011239891485157
 11
-4.078750021229352
 21
-5.214737718603018
  0
LINE
  5
23D
100
AcDbEntity
  8
0
  6
CONTINUOUS
 62
    7
370
    0
100
AcDbLine
 10
-4.078750021229352
 20
-5.214737718603018
 11
-3.809843628211925
 21
-5.430931318579892
  0
LINE
  5
23E
100
AcDbEntity
  8
0
  6
CONTINUOUS
 62
    7
370
    0
100
AcDbLine
 10
-3.809843628211925
 20
-5.430931318579892
 11
-3.551344167560397
 21
-5.659423496964093
  0
LINE
  5
23F
100
AcDbEntity
  8
0
  6
CONTINUOUS
 62
    7
370
    0
100
AcDbLine
 10
-3.551344167560397
 20
-5.659423496964093
 11
-3.30377302509182
 21
-5.899718538132177
  0
LINE
  5
240
100
AcDbEntity
  8
0
  6
CONTINUOUS
 62
    7
370
    0
100
AcDbLine
 10
-3.30377302509182
 20
-5.899718538132177
 11
-3.065229230229414
 21
-6.149311978289591
  0
LINE
  5
241
100
AcDbEntity
  8
0
  6
CONTINUOUS
 62
    7
370
    0
100
AcDbLine
 10
-3.065229230229414
 20
-6.149311978289591
 11
-2.831550201904822
 21
-6.403823904616067
  0
LINE
  5
242
100
AcDbEntity
  8
0
  6
CONTINUOUS
 62
    7
370
    0
100
AcDbLine
 10
-2.831550201904822
 20
-6.403823904616067
 11
-2.598486748729847
 21
-6.658802582357128
  0
LINE
  5
243
100
AcDbEntity
  8
0
  6
CONTINUOUS
 62
    7
370
    0
100
AcDbLine
 10
-2.598486748729847
 20
-6.658802582357128
 11
-2.3617896793163
 21
-6.909796276758295
  0
LINE
  5
244
100
AcDbEntity
  8
0
  6
CONTINUOUS
 62
    7
370
    0
100
AcDbLine
 10
-2.3617896793163
 20
-6.909796276758295
 11
-2.117209802275987
 21
-7.152353253065088
  0
LINE
  5
245
100
AcDbEntity
  8
0
  6
CONTINUOUS
 62
    7
370
    0
100
AcDbLine
 10
-2.117209802275987
 20
-7.152353253065088
 11
-1.860497926220715
 21
-7.382021776523024
  0
LINE
  5
246
100
AcDbEntity
  8
0
  6
CONTINUOUS
 62
    7
370
    0
100
AcDbLine
 10
-1.860497926220715
 20
-7.382021776523024
 11
-1.587404859762292
 21
-7.594350112377629
  0
LINE
  5
247
100
AcDbEntity
  8
0
  6
CONTINUOUS
 62
    7
370
    0
100
AcDbLine
 10
-1.587404859762292
 20
-7.594350112377629
 11
-1.293681411512523
 21
-7.784886525874419
  0
LINE
  5
248
100
AcDbEntity
  8
0
  6
CONTINUOUS
 62
    7
370
    0
100
AcDbLine
 10
-1.293681411512523
 20
-7.784886525874419
 11
-0.9751061687363017
 21
-7.949216630982478
  0
LINE
  5
249
100
AcDbEntity
  8
0
  6
CONTINUOUS
 62
    7
370
    0
100
AcDbLine
 10
-0.9751061687363017
 20
-7.949216630982478
 11
-0.6293560552642004
 21
-8.085478377358436
  0
LINE
  5
24A
100
AcDbEntity
  8
0
  6
CONTINUOUS
 62
    7
370
    0
100
AcDbLine
 10
-0.6293560552642004
 20
-8.085478377358436
 11
-0.2571919398387247
 21
-8.195956114617429
  0
LINE
  5
24B
100
AcDbEntity
  8
0
  6
CONTINUOUS
 62
    7
370
    0
100
AcDbLine
 10
-0.2571919398387247
 20
-8.195956114617429
 11
0.1403427638863803
 21
-8.283314077308232
  0
LINE
  5
24C
100
AcDbEntity
  8
0
  6
CONTINUOUS
 62
    7
370
    0
100
AcDbLine
 10
0.1403427638863803
 20
-8.283314077308232
 11
0.5622046422573711
 21
-8.350216499979624
  0
LINE
  5
24D
100
AcDbEntity
  8
0
  6
CONTINUOUS
 62
    7
370
    0
100
AcDbLine
 10
0.5622046422573711
 20
-8.350216499979624
 11
1.007350281620503
 21
-8.399327617180379
  0
LINE
  5
24E
100
AcDbEntity
  8
0
  6
CONTINUOUS
 62
    7
370
    0
100
AcDbLine
 10
1.007350281620503
 20
-8.399327617180379
 11
1.474736268322031
 21
-8.43331166345928
  0
LINE
  5
24F
100
AcDbEntity
  8
0
  6
CONTINUOUS
 62
    7
370
    0
100
AcDbLine
 10
1.474736268322031
 20
-8.43331166345928
 11
1.963319188708211
 21
-8.454832873365101
  0
LINE
  5
250
100
AcDbEntity
  8
0
  6
CONTINUOUS
 62
    7
370
    0
100
AcDbLine
 10
1.963319188708211
 20
-8.454832873365101
 11
2.472055629125298
 21
-8.466555481446623
  0
LINE
  5
251
100
AcDbEntity
  8
0
  6
CONTINUOUS
 62
    7
370
    0
100
AcDbLine
 10
2.472055629125298
 20
-8.466555481446623
 11
2.999902673719457
 21
-8.471143176621538
  0
LINE
  5
252
100
AcDbEntity
  8
0
  6
CONTINUOUS
 62
    7
370
    0
100
AcDbLine
 10
2.999902673719457
 20
-8.471143176621538
 11
3.546391681057707
 21
-8.470630194149471
  0
LINE
  5
253
100
AcDbEntity
  8
0
  6
CONTINUOUS
 62
    7
370
    0
100
AcDbLine
 10
3.546391681057707
 20
-8.470630194149471
 11
4.112734333302326
 21
-8.465208991569543
  0
LINE
  5
254
100
AcDbEntity
  8
0
  6
CONTINUOUS
 62
    7
370
    0
100
AcDbLine
 10
4.112734333302326
 20
-8.465208991569543
 11
4.700448023985156
 21
-8.454736940732056
  0
LINE
  5
255
100
AcDbEntity
  8
0
  6
CONTINUOUS
 62
    7
370
    0
100
AcDbLine
 10
4.700448023985156
 20
-8.454736940732056
 11
5.311050146638035
 21
-8.439071413487316
  0
LINE
  5
256
100
AcDbEntity
  8
0
  6
CONTINUOUS
 62
    7
370
    0
100
AcDbLine
 10
5.311050146638035
 20
-8.439071413487316
 11
5.946058094792799
 21
-8.418069781685622
  0
LINE
  5
257
100
AcDbEntity
  8
0
  6
CONTINUOUS
 62
    7
370
    0
100
AcDbLine
 10
5.946058094792799
 20
-8.418069781685622
 11
6.606989261981291
 21
-8.391589417177279
  0
LINE
  5
258
100
AcDbEntity
  8
0
  6
CONTINUOUS
 62
    7
370
    0
100
AcDbLine
 10
6.606989261981291
 20
-8.391589417177279
 11
7.295361041735348
 21
-8.359487691812587
  0
LINE
  5
259
100
AcDbEntity
  8
0
  6
CONTINUOUS
 62
    7
370
    0
100
AcDbLine
 10
7.295361041735348
 20
-8.359487691812587
 11
8.012690827586807
 21
-8.321621977441851
  0
LINE
  5
25A
100
AcDbEntity
  8
0
  6
CONTINUOUS
 62
    7
370
    0
100
AcDbLine
 10
8.012690827586807
 20
-8.321621977441851
 11
8.76049601306751
 21
-8.277849645915374
  0
LINE
  5
25B
100
AcDbEntity
  8
0
  6
CONTINUOUS
 62
    7
370
    0
100
AcDbLine
 10
8.76049601306751
 20
-8.277849645915374
 11
9.538898821299671
 21
-8.227406453882507
  0
LINE
  5
25C
100
AcDbEntity
  8
0
  6
CONTINUOUS
 62
    7
370
    0
100
AcDbLine
 10
9.538898821299671
 20
-8.227406453882507
 11
10.3403530077195
 21
-8.166111488567299
  0
LINE
  5
25D
100
AcDbEntity
  8
0
  6
CONTINUOUS
 62
    7
370
    0
100
AcDbLine
 10
10.3403530077195
 20
-8.166111488567299
 11
11.154691520169
 21
-8.088616141958793
  0
LINE
  5
25E
100
AcDbEntity
  8
0
  6
CONTINUOUS
 62
    7
370
    0
100
AcDbLine
 10
11.154691520169
 20
-8.088616141958793
 11
11.97174503468813
 21
-7.989570793849491
  0
LINE
  5
25F
100
AcDbEntity
  8
0
  6
CONTINUOUS
 62
    7
370
    0
100
AcDbLine
 10
11.97174503468813
 20
-7.989570793849491
 11
12.78134422731688
 21
-7.863625824031889
  0
LINE
  5
260
100
AcDbEntity
  8
0
  6
CONTINUOUS
 62
    7
370
    0
100
AcDbLine
 10
12.78134422731688
 20
-7.863625824031889
 11
13.57331977409524
 21
-7.705431612298495
  0
LINE
  5
261
100
AcDbEntity
  8
0
  6
CONTINUOUS
 62
    7
370
    0
100
AcDbLine
 10
13.57331977409524
 20
-7.705431612298495
 11
14.33750235106318
 21
-7.509638538441807
  0
LINE
  5
262
100
AcDbEntity
  8
0
  6
CONTINUOUS
 62
    7
370
    0
100
AcDbLine
 10
14.33750235106318
 20
-7.509638538441807
 11
15.06372263426068
 21
-7.270896982254328
  0
LINE
  5
263
100
AcDbEntity
  8
0
  6
CONTINUOUS
 62
    7
370
    0
100
AcDbLine
 10
15.06372263426068
 20
-7.270896982254328
 11
15.74181129972773
 21
-6.983857323528559
  0
LINE
  5
264
100
AcDbEntity
  8
0
  6
CONTINUOUS
 62
    7
370
    0
100
AcDbLine
 10
15.74181129972773
 20
-6.983857323528559
 11
16.36182852281391
 21
-6.643750245068597
  0
LINE
  5
265
100
AcDbEntity
  8
0
  6
CONTINUOUS
 62
    7
370
    0
100
AcDbLine
 10
16.36182852281391
 20
-6.643750245068597
 11
16.91633943719583
 21
-6.252140369695885
  0
LINE
  5
266
100
AcDbEntity
  8
0
  6
CONTINUOUS
 62
    7
370
    0
100
AcDbLine
 10
16.91633943719583
 20
-6.252140369695885
 11
17.39945111524337
 21
-5.814491206328453
  0
LINE
  5
267
100
AcDbEntity
  8
0
  6
CONTINUOUS
 62
    7
370
    0
100
AcDbLine
 10
17.39945111524337
 20
-5.814491206328453
 11
17.80529319275421
 21
-5.336323316888645
  0
LINE
  5
268
100
AcDbEntity
  8
0
  6
CONTINUOUS
 62
    7
370
    0
100
AcDbLine
 10
17.80529319275421
 20
-5.336323316888645
 11
18.12799530552603
 21
-4.823157263298814
  0
LINE
  5
269
100
AcDbEntity
  8
0
  6
CONTINUOUS
 62
    7
370
    0
100
AcDbLine
 10
18.12799530552603
 20
-4.823157263298814
 11
18.36168708935652
 21
-4.280513607481313
  0
LINE
  5
26A
100
AcDbEntity
  8
0
  6
CONTINUOUS
 62
    7
370
    0
100
AcDbLine
 10
18.36168708935652
 20
-4.280513607481313
 11
18.50049818004337
 21
-3.713912911358492
  0
LINE
  5
26B
100
AcDbEntity
  8
0
  6
CONTINUOUS
 62
    7
370
    0
100
AcDbLine
 10
18.50049818004337
 20
-3.713912911358492
 11
18.53855821338424
 21
-3.128875736852699
  0
LINE
  5
26C
100
AcDbEntity
  8
0
  6
CONTINUOUS
 62
    7
370
    0
100
AcDbLine
 10
18.53855821338424
 20
-3.128875736852699
 11
18.46999682517684
 21
-2.530922645886288
  0
LINE
  5
26D
100
AcDbEntity
  8
0
  6
CONTINUOUS
 62
    7
370
    0
100
AcDbLine
 10
18.46999682517684
 20
-2.530922645886288
 11
18.28909296525065
 21
-1.925614068851365
  0
LINE
  5
26E
100
AcDbEntity
  8
0
  6
CONTINUOUS
 62
    7
370
    0
100
AcDbLine
 10
18.28909296525065
 20
-1.925614068851365
 11
17.99402454353074
 21
-1.31955150087292
  0
LINE
  5
26F
100
AcDbEntity
  8
0
  6
CONTINUOUS
 62
    7
370
    0
100
AcDbLine
 10
17.99402454353074
 20
-1.31955150087292
 11
17.58714555196507
 21
-0.7204514963761514
  0
LINE
  5
270
100
AcDbEntity
  8
0
  6
CONTINUOUS
 62
    7
370
    0
100
AcDbLine
 10
17.58714555196507
 20
-0.7204514963761514
 11
17.07101480284703
 21
-0.1360852990451811
  0
LINE
  5
271
100
AcDbEntity
  8
0
  6
CONTINUOUS
 62
    7
370
    0
100
AcDbLine
 10
17.07101480284703
 20
-0.1360852990451811
 11
16.44819110847003
 21
0.4257758474358678
  0
LINE
  5
272
100
AcDbEntity
  8
0
  6
CONTINUOUS
 62
    7
370
    0
100
AcDbLine
 10
16.44819110847003
 20
0.4257758474358678
 11
15.72123328112745
 21
0.9573606993828737
  0
LINE
  5
273
100
AcDbEntity
  8
0
  6
CONTINUOUS
 62
    7
370
    0
100
AcDbLine
 10
15.72123328112745
 20
0.9573606993828737
 11
14.8927001331127
 21
1.450898013111712
  0
LINE
  5
274
100
AcDbEntity
  8
0
  6
CONTINUOUS
 62
    7
370
    0
100
AcDbLine
 10
14.8927001331127
 20
1.450898013111712
 11
13.96515047671916
 21
1.898616544938263
  0
LINE
  5
275
100
AcDbEntity
  8
0
  6
CONTINUOUS
 62
    7
370
    0
100
AcDbLine
 10
13.96515047671916
 20
1.898616544938263
 11
12.94114312424025
 21
2.292745051178402
  0
LINE
  5
276
100
AcDbEntity
  8
0
  6
CONTINUOUS
 62
    7
370
    0
100
AcDbLine
 10
12.94114312424025
 20
2.292745051178402
 11
11.82326571177561
 21
2.625558893033161
  0
LINE
  5
277
100
AcDbEntity
  8
0
  6
CONTINUOUS
 62
    7
370
    0
100
AcDbLine
 10
11.82326571177561
 20
2.625558893033161
 11
10.61717826258368
 21
2.894301139621954
  0
LINE
  5
278
100
AcDbEntity
  8
0
  6
CONTINUOUS
 62
    7
370
    0
100
AcDbLine
 10
10.61717826258368
 20
2.894301139621954
 11
9.33429656815086
 21
3.10552129637089
  0
LINE
  5
279
100
AcDbEntity
  8
0
  6
CONTINUOUS
 62
    7
370
    0
100
AcDbLine
 10
9.33429656815086
 20
3.10552129637089
 11
7.98666916015897
 21
3.266791939144998
  0
LINE
  5
27A
100
AcDbEntity
  8
0
  6
CONTINUOUS
 62
    7
370
    0
100
AcDbLine
 10
7.98666916015897
 20
3.266791939144998
 11
6.586344570289822
 21
3.385685643809304
  0
LINE
  5
27B
100
AcDbEntity
  8
0
  6
CONTINUOUS
 62
    7
370
    0
100
AcDbLine
 10
6.586344570289822
 20
3.385685643809304
 11
5.145371330225228
 21
3.469774986228835
  0
LINE
  5
27C
100
AcDbEntity
  8
0
  6
CONTINUOUS
 62
    7
370
    0
100
AcDbLine
 10
5.145371330225228
 20
3.469774986228835
 11
3.675797971647004
 21
3.526632542268617
  0
LINE
  5
27D
100
AcDbEntity
  8
0
  6
CONTINUOUS
 62
    7
370
    0
100
AcDbLine
 10
3.675797971647004
 20
3.526632542268617
 11
2.189673026236963
 21
3.563830887793678
  0
LINE
  5
27E
100
AcDbEntity
  8
0
  6
CONTINUOUS
 62
    7
370
    0
100
AcDbLine
 10
2.189673026236963
 20
3.563830887793678
 11
0.6990450256769163
 21
3.588942598669046
  0
LINE
  5
27F
100
AcDbEntity
  8
0
  6
CONTINUOUS
 62
    7
370
    0
100
AcDbLine
 10
0.6990450256769163
 20
3.588942598669046
 11
-0.7840377671680115
 21
3.609540031014441
  0
LINE
  5
280
100
AcDbEntity
  8
0
  6
CONTINUOUS
 62
    7
370
    0
100
AcDbLine
 10
-0.7840377671680115
 20
3.609540031014441
 11
-2.249676547675254
 21
3.631438457486658
  0
LINE
  5
281
100
AcDbEntity
  8
0
  6
CONTINUOUS
 62
    7
370
    0
100
AcDbLine
 10
-2.249676547675254
 20
3.631438457486658
 11
-3.695317927239996
 21
3.6544486102692
  0
LINE
  5
282
100
AcDbEntity
  8
0
  6
CONTINUOUS
 62
    7
370
    0
100
AcDbLine
 10
-3.695317927239996
 20
3.6544486102692
 11
-5.119976256185711
 21
3.677099666923784
  0
LINE
  5
283
100
AcDbEntity
  8
0
  6
CONTINUOUS
 62
    7
370
    0
100
AcDbLine
 10
-5.119976256185711
 20
3.677099666923784
 11
-6.522665884835869
 21
3.697920805012131
  0
LINE
  5
284
100
AcDbEntity
  8
0
  6
CONTINUOUS
 62
    7
370
    0
100
AcDbLine
 10
-6.522665884835869
 20
3.697920805012131
 11
-7.902401163513948
 21
3.715441202095958
  0
LINE
  5
285
100
AcDbEntity
  8
0
  6
CONTINUOUS
 62
    7
370
    0
100
AcDbLine
 10
-7.902401163513948
 20
3.715441202095958
 11
-9.258196442543415
 21
3.728190035736985
  0
LINE
  5
286
100
AcDbEntity
  8
0
  6
CONTINUOUS
 62
    7
370
    0
100
AcDbLine
 10
-9.258196442543415
 20
3.728190035736985
 11
-10.58906607224775
 21
3.73469648349693
  0
LINE
  5
287
100
AcDbEntity
  8
0
  6
CONTINUOUS
 62
    7
370
    0
100
AcDbLine
 10
-10.58906607224775
 20
3.73469648349693
 11
-11.89402440295041
 21
3.733489722937512
  0
LINE
  5
288
100
AcDbEntity
  8
0
  6
CONTINUOUS
 62
    7
370
    0
100
AcDbLine
 10
-11.89402440295041
 20
3.733489722937512
 11
-13.17208578497489
 21
3.723098931620449
  0
LINE
  5
289
100
AcDbEntity
  8
0
  6
CONTINUOUS
 62
    7
370
    0
100
AcDbLine
 10
-13.17208578497489
 20
3.723098931620449
 11
-14.42178532619445
 21
3.702624837075698
  0
LINE
  5
28A
100
AcDbEntity
  8
0
  6
CONTINUOUS
 62
    7
370
    0
100
AcDbLine
 10
-14.42178532619445
 20
3.702624837075698
 11
-15.63855861989539
 21
3.674864682997405
  0
LINE
  5
28B
100
AcDbEntity
  8
0
  6
CONTINUOUS
 62
    7
370
    0
100
AcDbLine
 10
-15.63855861989539
 20
3.674864682997405
 11
-16.8166080524731
 21
3.644086449570248
  0
LINE
  5
28C
100
AcDbEntity
  8
0
  6
CONTINUOUS
 62
    7
370
    0
100
AcDbLine
 10
-16.8166080524731
 20
3.644086449570248
 11
-17.95013285125411
 21
3.614561884520198
  0
LINE
  5
28D
100
AcDbEntity
  8
0
  6
CONTINUOUS
 62
    7
370
    0
100
AcDbLine
 10
-17.95013285125411
 20
3.614561884520198
 11
-19.03333224356492
 21
3.590562735573226
  0
LINE
  5
28E
100
AcDbEntity
  8
0
  6
CONTINUOUS
 62
    7
370
    0
100
AcDbLine
 10
-19.03333224356492
 20
3.590562735573226
 11
-20.06040545673206
 21
3.576360750455304
  0
LINE
  5
28F
100
AcDbEntity
  8
0
  6
CONTINUOUS
 62
    7
370
    0
100
AcDbLine
 10
-20.06040545673206
 20
3.576360750455304
 11
-21.02555171808204
 21
3.576227676892402
  0
LINE
  5
290
100
AcDbEntity
  8
0
  6
CONTINUOUS
 62
    7
370
    0
100
AcDbLine
 10
-21.02555171808204
 20
3.576227676892402
 11
-21.92297025494138
 21
3.594435262610491
  0
LINE
  5
291
100
AcDbEntity
  8
0
  6
CONTINUOUS
 62
    7
370
    0
100
AcDbLine
 10
-21.92297025494138
 20
3.594435262610491
 11
-22.74686029463658
 21
3.635255255335544
  0
LINE
  5
292
100
AcDbEntity
  8
0
  6
CONTINUOUS
 62
    7
370
    0
100
AcDbLine
 10
-22.74686029463658
 20
3.635255255335544
 11
-23.49184773866517
 21
3.702553887697335
  0
LINE
  5
293
100
AcDbEntity
  8
0
  6
CONTINUOUS
 62
    7
370
    0
100
AcDbLine
 10
-23.49184773866517
 20
3.702553887697335
 11
-24.15820772368583
 21
3.794828306743587
  0
LINE
  5
294
100
AcDbEntity
  8
0
  6
CONTINUOUS
 62
    7
370
    0
100
AcDbLine
 10
-24.15820772368583
 20
3.794828306743587
 11
-24.75021644438208
 21
3.906773016802862
  0
LINE
  5
295
100
AcDbEntity
  8
0
  6
CONTINUOUS
 62
    7
370
    0
100
AcDbLine
 10
-24.75021644438208
 20
3.906773016802862
 11
-25.27223478828511
 21
4.033002029334518
  0
LINE
  5
296
100
AcDbEntity
  8
0
  6
CONTINUOUS
 62
    7
370
    0
100
AcDbLine
 10
-25.27223478828511
 20
4.033002029334518
 11
-25.72862364292603
 21
4.168129355797906
  0
LINE
  5
297
100
AcDbEntity
  8
0
  6
CONTINUOUS
 62
    7
370
    0
100
AcDbLine
 10
-25.72862364292603
 20
4.168129355797906
 11
-26.123743895836
 21
4.306769007652384
  0
LINE
  5
298
100
AcDbEntity
  8
0
  6
CONTINUOUS
 62
    7
370
    0
100
AcDbLine
 10
-26.123743895836
 20
4.306769007652384
 11
-26.46195643454617
 21
4.443534996357304
  0
LINE
  5
299
100
AcDbEntity
  8
0
  6
CONTINUOUS
 62
    7
370
    0
100
AcDbLine
 10
-26.46195643454617
 20
4.443534996357304
 11
-26.74762214658768
 21
4.573041333372021
  0
LINE
  5
29A
100
AcDbEntity
  8
0
  6
CONTINUOUS
 62
    7
370
    0
100
AcDbLine
 10
-26.74762214658768
 20
4.573041333372021
 11
-26.98510191949167
 21
4.689902030155892
  0
LINE
  5
29B
100
AcDbEntity
  8
0
  6
CONTINUOUS
 62
    7
370
    0
100
AcDbLine
 10
-26.98510191949167
 20
4.689902030155892
 11
-27.17870704031475
 21
4.788767152278801
  0
LINE
  5
29C
100
AcDbEntity
  8
0
  6
CONTINUOUS
 62
    7
370
    0
100
AcDbLine
 10
-27.17870704031475
 20
4.788767152278801
 11
-27.33104038914283
 21
4.865528589996562
  0
LINE
  5
29D
100
AcDbEntity
  8
0
  6
CONTINUOUS
 62
    7
370
    0
100
AcDbLine
 10
-27.33104038914283
 20
4.865528589996562
 11
-27.44260496347068
 21
4.917604618135003
  0
LINE
  5
29E
100
AcDbEntity
  8
0
  6
CONTINUOUS
 62
    7
370
    0
100
AcDbLine
 10
-27.44260496347068
 20
4.917604618135003
 11
-27.51377481893437
 21
4.942507238123691
  0
LINE
  5
29F
100
AcDbEntity
  8
0
  6
CONTINUOUS
 62
    7
370
    0
100
AcDbLine
 10
-27.51377481893437
 20
4.942507238123691
 11
-27.54492401116997
 21
4.937748451392198
  0
LINE
  5
2A0
100
AcDbEntity
  8
0
  6
CONTINUOUS
 62
    7
370
    0
100
AcDbLine
 10
-27.54492401116997
 20
4.937748451392198
 11
-27.53642659581354
 21
4.900840259370089
  0
LINE
  5
2A1
100
AcDbEntity
  8
0
  6
CONTINUOUS
 62
    7
370
    0
100
AcDbLine
 10
-27.53642659581354
 20
4.900840259370089
 11
-27.48865662850115
 21
4.829294663486934
  0
LINE
  5
2A2
100
AcDbEntity
  8
0
  6
CONTINUOUS
 62
    7
370
    0
100
AcDbLine
 10
-27.48865662850115
 20
4.829294663486934
 11
-27.40198816486888
 21
4.7206236651723
  0
LINE
  5
2A3
100
AcDbEntity
  8
0
  6
CONTINUOUS
 62
    7
370
    0
100
AcDbLine
 10
-27.40198816486888
 20
4.7206236651723
 11
-27.27679526055279
 21
4.572339265855756
  0
LINE
  5
2A4
100
AcDbEntity
  8
0
  6
CONTINUOUS
 62
    7
370
    0
100
AcDbLine
 10
-27.27679526055279
 20
4.572339265855756
 11
-27.11345774425646
 21
4.381964733482032
  0
LINE
  5
2A5
100
AcDbEntity
  8
0
  6
CONTINUOUS
 62
    7
370
    0
100
AcDbLine
 10
-27.11345774425646
 20
4.381964733482032
 11
-26.91342986666811
 21
4.149120140091281
  0
LINE
  5
2A6
100
AcDbEntity
  8
0
  6
CONTINUOUS
 62
    7
370
    0
100
AcDbLine
 10
-26.91342986666811
 20
4.149120140091281
 11
-26.68049350712946
 21
3.877968075805928
  0
LINE
  5
2A7
100
AcDbEntity
  8
0
  6
CONTINUOUS
 62
    7
370
    0
100
AcDbLine
 10
-26.68049350712946
 20
3.877968075805928
 11
-26.41873498408879
 21
3.573265263383951
  0
LINE
  5
2A8
100
AcDbEntity
  8
0
  6
CONTINUOUS
 62
    7
370
    0
100
AcDbLine
 10
-26.41873498408879
 20
3.573265263383951
 11
-26.13224061599436
 21
3.239768425583325
  0
LINE
  5
2A9
100
AcDbEntity
  8
0
  6
CONTINUOUS
 62
    7
370
    0
100
AcDbLine
 10
-26.13224061599436
 20
3.239768425583325
 11
-25.82509672129447
 21
2.882234285162028
  0
LINE
  5
2AA
100
AcDbEntity
  8
0
  6
CONTINUOUS
 62
    7
370
    0
100
AcDbLine
 10
-25.82509672129447
 20
2.882234285162028
 11
-25.50138961843739
 21
2.505419564878034
  0
LINE
  5
2AB
100
AcDbEntity
  8
0
  6
CONTINUOUS
 62
    7
370
    0
100
AcDbLine
 10
-25.50138961843739
 20
2.505419564878034
 11
-25.16520562587139
 21
2.114080987489321
  0
LINE
  5
2AC
100
AcDbEntity
  8
0
  6
CONTINUOUS
 62
    7
370
    0
100
AcDbLine
 10
-25.16520562587139
 20
2.114080987489321
 11
-24.82063106204476
 21
1.712975275753865
  0
LINE
  5
2AD
100
AcDbEntity
  8
0
  6
CONTINUOUS
 62
    7
370
    0
100
AcDbLine
 10
-24.82063106204476
 20
1.712975275753865
 11
-24.47175224540577
 21
1.306859152429642
  0
ARC
  5
2AE
100
AcDbEntity
  8
0
  6
ByLayer
 62
  256
370
   -1
100
AcDbCircle
 10
-0.004810473148922189
 20
34.23887164348031
 40
48.55130165417592
100
AcDbArc
 50
255.1517588900888
 51
284.8634540795582
  0
LINE
  5
2AF
100
AcDbEntity
  8
0
  6
ByLayer
 62
  256
370
   -1
100
AcDbLine
 10
12.4493917854645
 20
-12.6878983115926
 11
0
 21
-27.17974616399161
  0
LINE
  5
2B0
100
AcDbEntity
  8
0
  6
ByLayer
 62
  256
370
   -1
100
AcDbLine
 10
0
 20
-27.17974616399161
 11
-12.44655246544384
 21
-12.69120345247442
  0
LWPOLYLINE
  5
2B1
100
AcDbEntity
  8
Extern
  6
ByLayer
 62
  256
370
   -1
100
AcDbPolyline
 90
    5
 70
    1
 43
0
 10
-44.72212812710518
 20
18.51994305854248
 10
0
 20
-33.5393292032727
 10
44.72212812710514
 20
18.51994305854248
 10
29.53261293365614
 20
33.5393292032727
 10
-29.53261293365608
 20
33.5393292032727
  0
ENDSEC
  0
SECTION
  2
OBJECTS
  0
DICTIONARY
  5
C
330
0
100
AcDbDictionary
281
    1
  3
ACAD_GROUP
350
D
  0
DICTIONARY
  5
D
330
C
100
AcDbDictionary
281
    1
  0
PLOTSETTINGS
  5
2B2
100
AcDbPlotSettings
  6
1x1
 40
0
 41
0
 42
0
 43
0
  0
ENDSEC
  0
EOF
